<svg width="200" height="200" viewBox="0 0 181.501 222.55" fill="none" xmlns="http://www.w3.org/2000/svg">
<g clip-path="url(#clip0_7097_323)">
<path d="M8.19097 105.247L8.44248 105.681C9.82948 104.769 10.0952 102.739 11.8967 102.469C12.5565 102.94 12.3405 102.725 12.6785 103.548C12.2927 107.405 10.963 109.606 10.0472 113.012C8.47098 118.875 6.93197 126.201 7.47622 132.258C7.75872 135.403 8.66222 139.634 9.43522 142.734C10.16 145.64 11.2405 147.53 11.5132 150.621C9.16747 149.833 7.27523 149.074 5.68598 147.049C-0.703773 141.574 -0.222777 126.943 0.248973 119.127C0.452723 115.754 2.76172 108.99 4.63347 106.059C6.67647 106.987 5.76197 107.629 7.17122 108.82C8.24472 107.043 7.35047 106.071 8.19097 105.247Z" fill="#ED7383"/>
<path d="M163.957 102.363C165.172 102.281 166.946 102.128 167.844 103.015C170.366 105.513 170.776 112.484 171.089 115.809C171.791 123.249 169.529 129.605 165.836 135.911C164.462 138.256 163.736 139.982 161.822 142.15C160.675 143.189 159.523 143.953 157.901 143.624C156.931 142.781 157.045 142.222 157.37 140.993C158.445 136.931 160.27 133.038 161.567 129.064C162.336 126.664 162.989 124.229 163.521 121.767C164.424 117.471 163.032 103.704 163.957 102.363Z" fill="#ED7383"/>
<path d="M175.939 102.383C184.956 103.788 180.909 127.983 178.291 133.88C177.971 134.6 177.634 135.341 177.276 136.044C176.376 136.966 174.744 137.074 173.516 137.233C173.469 131.537 174.696 128.981 175.509 123.674C176.521 117.057 175.116 108.875 175.939 102.383Z" fill="#ED7383"/>
<path d="M15.6061 115.442C16.6614 114.37 17.0611 113.577 18.5976 113.748C19.4541 114.263 19.6196 114.795 20.0556 115.677C22.6521 119.707 21.4621 123.137 21.4516 127.702C21.4431 131.471 21.5679 135.33 22.4176 139.017C22.6931 140.295 23.6349 141.86 23.5879 143.017C23.1921 143.72 23.4734 143.46 22.6681 143.767C19.1171 143.212 16.9689 137.697 16.3456 134.597C13.7881 129.964 14.2764 120.444 15.6061 115.442Z" fill="#ED7383"/>
<path d="M56.8267 0H62.5602C63.557 1.17017 65.6362 3.5303 66.2827 4.90613C68.5217 9.71108 69.338 15.1163 70.669 20.2214C71.1007 21.8777 70.9387 24.2599 71.3575 25.8158C73.0857 32.2335 72.9197 38.5058 73.4347 45.0713C73.7302 48.8365 74.6962 52.8053 75.0892 56.5838C75.43 59.7318 75.4742 63.6182 75.5467 66.825C75.487 74.743 76.4557 84.0023 77.227 91.8785C77.4822 94.4845 77.1635 98.1237 77.4892 100.607C77.2375 106.039 77.5937 113.011 77.5517 118.648L77.3515 171.442C77.3227 176.152 77.7427 188.677 76.7535 192.546C80.5917 192.314 86.4367 192.2 90.0437 191.775C94.6797 192.012 99.3627 192.007 103.97 192.381L103.934 191.154C103.892 186.329 103.117 181.235 102.976 176.365C102.599 163.334 101.993 148.02 103.084 135.094C103.598 125.521 105.235 116.671 106.772 107.062C111.896 75.0293 118.302 40.9117 135.213 12.7687C138.531 7.24555 148.527 1.4006 154.77 5.10728C157.741 6.87135 158.588 9.80597 159.316 12.8846C159.299 14.7824 159.116 19.3897 159.251 21.1218L159.216 21.4186C158.528 27.624 159.101 35.778 158.436 42.152C158.246 43.9783 157.217 46.5478 157.117 48.0508C156.793 52.9418 156.728 57.9695 156.372 62.8565C156.199 65.2375 155.381 68.1655 155.12 70.6865C152.005 103.504 147.322 136.154 141.087 168.524C140.257 172.763 139.481 176.292 138.417 181.22C137.814 184.008 134.304 195.486 134.943 198.309C135.135 199.157 142.489 202.109 143.567 202.842C149.109 206.609 158.707 213.721 160.623 220.243C160.735 220.625 160.195 221.486 159.798 221.763C158.901 222.389 158.213 222.443 157.144 222.454C148.431 222.545 139.676 222.48 130.962 222.477L80.7645 222.476L50.4457 222.49C45.2677 222.495 37.5115 222.74 32.581 222.204C31.926 221.475 31.1035 220.772 30.9702 219.867C32.2535 214.493 44.5215 204.67 49.5977 202.4C50.175 201.756 50.8155 200.924 50.3832 200.008C47.591 194.091 45.2342 188.405 43.5377 182.092C42.448 179.418 39.9877 171.06 39.838 168.246C38.1847 163.567 37.1835 157.135 36.3265 152.189C34.6932 142.763 34.0385 133.264 32.975 123.775C32.5367 119.865 32.6107 115.563 32.0307 111.734C32.278 109.343 32.1557 105.37 32.152 102.841C32.1565 97.821 32.2085 92.8012 32.308 87.7822C32.332 82.305 34.1125 57.7998 35.6705 53.7705C38.1127 39.5883 43.6617 7.9428 56.8267 0Z" fill="#F1AAB5"/>
<path d="M43.538 182.092L43.5245 180.898L43.7245 180.948C44.1048 182.031 45.1533 185.986 45.5768 186.548C47.3563 183.715 47.9041 180.546 47.1643 177.328C45.8033 171.405 44.4775 165.403 43.6413 159.374C40.61 137.518 37.022 83.0497 48.595 64.489C50.3673 61.647 52.6635 59.4935 55.2933 57.4637C61.901 67.461 62.3818 79.33 64.057 90.7977C67.5193 114.499 66.6771 138.352 67.0178 162.241C67.1386 170.717 68.967 186.179 67.6705 194.085C64.383 198.76 55.2423 202.65 49.598 202.4C50.1753 201.756 50.8158 200.924 50.3835 200.008C47.5913 194.091 45.2345 188.405 43.538 182.092Z" fill="#F4F0F0"/>
<path d="M136.564 56.9895C137.266 57.0015 138.095 56.9388 138.664 57.379C140.253 58.609 140.768 61.9785 141.086 63.9613C141.966 69.441 141.794 75.6463 141.772 81.2363C141.739 89.4335 141.934 97.8045 141.449 105.97C141.088 110.816 140.402 115.428 139.919 120.285C137.515 144.457 134.331 169.248 126.646 192.371C125.946 194.476 124.344 196.821 123.064 198.629C121.764 198.493 120.08 198.095 118.768 197.825C117.147 197.418 115.79 197.131 114.145 196.833C113.781 187.367 112.741 177.919 112.561 168.452C112.401 160.02 112.861 151.587 113.317 143.171C114.387 123.463 116.52 98.5593 122.816 79.8243C124.924 73.5528 130.572 59.9738 136.564 56.9895Z" fill="#F4F0F0"/>
</g>
<defs>
<clipPath id="clip0_7097_323">
<rect width="181.501" height="222.55" fill="white"/>
</clipPath>
</defs>
</svg>
