<svg width="200" height="200" viewBox="44.866 51.263 422.683 410.152" fill="none" xmlns="http://www.w3.org/2000/svg">
<path d="M250.245 51.3687C256.523 51.0492 265.9 51.5052 272.248 52.0507C304.233 54.7972 335.138 64.9572 362.513 81.7255C372.825 77.964 387.32 78.5835 397.908 81.0585C416.928 85.541 433.375 97.4265 443.6 114.079C452.258 128.112 455.888 144.67 453.898 161.038C453.338 165.678 452.288 169.908 451.215 174.436C460.77 198.387 465.58 218.804 467.185 244.626C470.46 300.387 451.535 355.18 414.545 397.037C396.398 417.532 370.83 439.615 344.115 447.885C336.413 450.27 330.548 449.555 323.18 450.875C318.87 451.647 312.968 453.955 308.355 455.102C294.433 458.565 281.095 460.327 266.813 461.175C229.959 462.972 193.315 454.662 160.84 437.145C154.649 433.862 149.407 430.15 143.478 426.625C140.844 426.625 137.682 426.872 135.077 427.012C88.7701 429.532 52.06 387.965 59.1745 342.502C60.308 335.26 59.8703 335.27 57.4838 328.625C56.0753 324.752 54.7798 320.84 53.5985 316.892C45.9663 291.095 43.239 262.937 45.8038 236.127C50.3103 188.779 70.6055 144.321 103.428 109.899C122.722 89.7815 151.003 66.3565 179.73 62.883C182.806 62.511 185.963 63.1677 189.096 62.1942C193.391 60.8592 197.65 59.3765 201.995 58.222C217.74 53.9835 233.944 51.682 250.245 51.3687Z" fill="#FEFEFE"/>
<path d="M67.0832 334.84C56.9145 308.78 51.6685 284.055 51.7625 255.905C51.942 202.019 74.2062 148.396 112.687 110.617C129.02 94.5822 152.31 75.2892 175.268 71.047C180.339 70.1097 184.046 70.1342 189.126 70.2125C191.117 70.1855 192.918 70.6972 194.817 71.1727C208.309 74.551 220.113 83.221 225.072 96.5177C227.606 103.309 228.884 108.048 229.026 115.315C229.236 126.052 226.333 132.443 221.296 141.466C223.389 141.546 228.38 140.11 230.7 139.611C234.185 138.877 237.702 138.3 241.24 137.883C265.777 135.158 290.56 140.069 312.205 151.944L312.55 152.564C316.962 153.977 324.445 159.743 328.337 162.584C329.967 163.774 331.905 165.497 333.702 166.296C336.065 175.684 340.2 183.784 346.205 191.248C351.4 197.707 355.46 203.651 358.502 211.398C359.315 213.467 360.555 215.869 361.172 217.991C361.272 218.233 361.462 218.754 361.602 218.937L362.045 218.802C364.33 219.507 366.565 219.884 368.912 220.268C396.142 224.718 424.365 211.414 437.81 187.056C439.257 184.413 440.557 181.691 441.702 178.902C442.167 177.759 442.422 176.591 442.977 175.507C464.3 228.295 465.9 283.065 443.49 335.93C433.275 359.925 418.59 381.757 400.215 400.262C395.52 404.992 390.307 409.545 385.292 413.93C374.19 423.64 362.03 432.755 348.262 438.322C342.27 440.745 336.395 442.322 329.932 442.712C327.185 442.88 322.617 442.83 320.077 443.28C318.877 441.987 314.58 441.082 312.602 440.41C288.455 432.192 275.877 407.055 284.272 382.8C285.352 379.675 288.257 375.047 288.957 372.227C287.695 372.35 283.545 373.377 282.01 373.715C278.217 374.565 274.38 375.207 270.515 375.637C243.755 378.517 221.664 373.147 198.085 360.907L197.97 360.63C190.909 357.562 183.816 350.857 177.721 346.737C173.531 331.795 167.022 324.785 158.092 312.737C154.15 307.42 149.39 296.212 147.717 289.552L147.352 288.787C146.684 288.91 143.007 288.117 142.038 287.985C139.333 287.6 136.609 287.367 133.878 287.285C113.948 286.662 96.2207 293.815 82.4517 308.385C77.177 314.007 72.9167 320.502 69.8597 327.58C69.3297 328.822 67.431 334.26 67.0832 334.84Z" fill="#FEFEFE"/>
<path d="M442.977 175.507C464.3 228.295 465.9 283.065 443.49 335.93C433.275 359.925 418.59 381.758 400.215 400.263C395.52 404.993 390.307 409.545 385.292 413.93C374.19 423.64 362.03 432.755 348.262 438.323C342.27 440.745 336.395 442.323 329.932 442.713C327.185 442.88 322.617 442.83 320.077 443.28C318.877 441.988 314.58 441.083 312.602 440.41C288.455 432.193 275.877 407.055 284.272 382.8C285.352 379.675 288.257 375.048 288.957 372.228C290.065 371.523 293.072 367.968 294.042 366.775C300.222 359.193 308.692 356.805 316.64 351.665C334.987 339.81 349.472 322.85 358.312 302.875C369.975 277.115 371.63 245.489 361.602 218.937L362.045 218.802C364.33 219.507 366.565 219.884 368.912 220.268C396.142 224.718 424.365 211.414 437.81 187.056C439.257 184.413 440.557 181.691 441.702 178.903C442.167 177.759 442.422 176.591 442.977 175.507Z" fill="#4367A9"/>
<path d="M67.0832 334.84C56.9145 308.78 51.6685 284.055 51.7625 255.905C51.942 202.019 74.2062 148.396 112.687 110.617C129.02 94.5822 152.31 75.2892 175.268 71.047C180.339 70.1097 184.046 70.1342 189.126 70.2125C191.117 70.1855 192.918 70.6972 194.817 71.1727C208.309 74.551 220.113 83.221 225.072 96.5177C227.606 103.309 228.884 108.048 229.026 115.315C229.236 126.052 226.333 132.443 221.296 141.466C218.155 145.274 213.861 150.499 209.654 153.03C202.053 157.604 195.173 160.793 187.944 166.178C156.502 189.75 139.52 227.932 143.073 267.067C143.604 272.552 145.35 283.742 147.352 288.787C146.684 288.91 143.007 288.117 142.038 287.985C139.333 287.6 136.609 287.367 133.878 287.285C113.948 286.662 96.2207 293.815 82.4517 308.385C77.177 314.007 72.9167 320.502 69.8597 327.58C69.3297 328.822 67.431 334.26 67.0832 334.84Z" fill="#383B8C"/>
<path d="M147.717 289.553C149.819 289.358 152.047 290.338 154.05 291.05C161.895 293.84 168.256 297.403 174.711 302.803C188.306 314.233 196.741 330.643 198.121 348.353C198.395 351.573 198.73 357.648 197.97 360.63C190.909 357.563 183.816 350.858 177.721 346.738C173.532 331.795 167.022 324.785 158.092 312.738C154.15 307.42 149.39 296.213 147.717 289.553Z" fill="#DAEDF1"/>
<path d="M312.55 152.564C316.963 153.977 324.445 159.743 328.338 162.584C329.968 163.774 331.905 165.497 333.703 166.296C336.065 175.684 340.2 183.784 346.205 191.248C351.4 197.707 355.46 203.651 358.503 211.398C359.315 213.467 360.555 215.869 361.173 217.991C358.99 218.372 355.293 216.649 353.278 215.781C343.823 211.71 335.755 205.708 328.935 198.005C318.38 186.08 311.498 168.582 312.55 152.564Z" fill="#DAEDF1"/>
<path d="M227.075 144.605C232.082 141.994 252.49 140.258 258.068 140.766C261.703 140.817 271.765 141.606 275.195 142.639C282.81 143.734 300.02 149.235 306.475 153.372C307.568 154.028 307.21 155.532 307.183 156.75C307.963 171.454 314.13 189.069 324.145 200.002C325.978 202.029 330.445 206.3 331.66 207.832C340.528 215.408 345.958 218.415 356.848 222.485C358.623 227.506 360.945 236.482 361.325 241.799C361.858 243.278 362.23 248.865 362.323 250.577C363.183 268.03 359.778 285.427 352.408 301.267C346.338 314.305 337.653 325.955 326.893 335.495C324.973 337.19 321.928 339.84 319.788 341.172C318.57 342.352 314.38 345.088 312.805 345.978C309.325 348.59 304.735 350.263 300.79 352.293C293.158 356.22 289.915 361.417 284.638 367.047C273.948 370.72 255.615 371.578 244.367 370.283C243.357 370.165 238.974 369.657 238.193 369.305C228.353 368.355 214.332 363.16 205.509 358.848L203.591 357.953C203.979 349.323 203.524 343.707 201.866 335.245C199.553 325.89 196.406 319.54 191.313 311.61C190.432 310.47 189.535 309.327 188.673 308.175C185.816 304.352 182.286 301.078 178.874 297.73C173.139 292.775 167.168 288.79 160.194 285.737C157.994 284.775 155.712 283.808 153.39 283.073C153.029 282.958 153.059 282.44 152.976 282.02C151.896 279.175 151.121 273.287 150.706 270.117C147.768 247.678 151.722 226.543 161.846 206.354C163.106 204.015 164.199 201.96 165.65 199.722C165.958 198.892 168.313 195.364 168.881 194.541C175.217 185.268 183.025 177.091 191.995 170.333C194.925 168.041 199.752 164.743 203.004 163.036C206.513 161.194 209.695 159.986 213.232 157.835C213.62 157.379 218.012 154.284 219.397 152.824C220.805 151.34 226.323 145.028 227.075 144.605Z" fill="#313551"/>
<path d="M331.66 207.832C340.527 215.408 345.957 218.415 356.847 222.485C358.622 227.506 360.945 236.482 361.325 241.8L361.162 242.046C360.8 241 360.887 240.101 360.695 239.463C359.097 234.194 358.075 228.783 356.202 223.638C353.815 222.349 347.625 220.041 345.647 218.855C342.66 217.064 332.017 211.331 331.66 207.832Z" fill="#13141E"/>
<path d="M324.145 200.002C324.135 200.425 324.11 200.537 324.047 200.955L323.735 200.964C314.162 189.503 308.105 175.671 306.53 160.8C306.405 159.618 305.977 157.245 307.182 156.75C307.962 171.454 314.13 189.069 324.145 200.002Z" fill="#13141E"/>
<path d="M205.509 358.848L206.088 358.483C208.426 359.098 210.654 360.285 212.918 361.205C215.813 362.348 218.739 363.41 221.693 364.39C223.786 365.095 225.65 365.655 227.738 366.25C230.358 366.998 236.186 367.75 238.189 369.228L238.193 369.305C228.353 368.355 214.332 363.16 205.509 358.848Z" fill="#13141E"/>
<path d="M275.195 142.639C282.81 143.734 300.02 149.235 306.475 153.372L305.758 153.604C305.28 153.541 294.995 149.398 293.878 148.787C291.185 147.316 275.438 143.411 274.948 142.912L275.195 142.639Z" fill="#13141E"/>
<path d="M152.976 282.02C154.62 281.602 166.057 287.31 168.01 288.617C171.416 290.897 177.102 293.877 178.874 297.73C173.139 292.775 167.168 288.79 160.194 285.737C157.994 284.775 155.712 283.807 153.39 283.072C153.029 282.957 153.059 282.44 152.976 282.02Z" fill="#13141E"/>
<path d="M227.075 144.605C232.082 141.994 252.49 140.258 258.067 140.766C256.03 141.366 248.771 141.701 246.212 141.935C241.601 142.396 237.019 143.11 232.487 144.075C231.282 144.33 228.035 145.28 227.075 144.605Z" fill="#13141E"/>
<path d="M191.313 311.61C195.436 312.647 201.974 330.235 202.279 334.707L201.865 335.245C199.553 325.89 196.406 319.54 191.313 311.61Z" fill="#13141E"/>
<path d="M213.232 157.834L213.46 158.338C212.917 159.613 203.675 163.642 201.562 164.917C199.091 166.41 195.07 169.413 192.822 170.629L191.995 170.333C194.925 168.041 199.752 164.743 203.004 163.036C206.513 161.194 209.695 159.986 213.232 157.834Z" fill="#13141E"/>
<path d="M312.805 345.978L312.63 345.218C313.095 344.183 318.455 340.557 319.787 341.172C318.57 342.352 314.38 345.088 312.805 345.978Z" fill="#2A2E42"/>
<path d="M165.65 199.722C165.654 201.293 163.899 205.694 162.519 206.403C161.98 206.291 162.194 206.288 161.846 206.353C163.106 204.014 164.199 201.96 165.65 199.722Z" fill="#2A2E42"/>
<path d="M360.15 89.874C377.898 84.9338 395.925 86.3075 412.17 95.3938C427.8 104.06 439.288 118.653 444.038 135.882C446.81 146.019 447.208 156.659 445.203 166.974C444.658 169.642 443.313 173.253 442.973 174.983L442.978 175.507C442.423 176.591 442.168 177.759 441.703 178.903C440.558 181.691 439.258 184.413 437.81 187.056C424.365 211.414 396.143 224.718 368.913 220.268C366.565 219.884 364.33 219.507 362.045 218.802L361.603 218.937C361.463 218.754 361.273 218.233 361.173 217.992C360.555 215.87 359.315 213.467 358.503 211.398C355.46 203.651 351.4 197.708 346.205 191.248C340.2 183.784 336.065 175.684 333.703 166.296C331.905 165.497 329.968 163.774 328.338 162.584C324.445 159.743 316.963 153.977 312.55 152.564L312.205 151.945C312.488 150.655 312.583 148.636 312.7 147.28C314.52 126.146 327.66 106.354 346.12 95.9243C348.04 94.8343 350.013 93.8325 352.025 92.9223C353.25 92.3755 359.24 90.1053 359.668 89.6703L360.15 89.874Z" fill="#B3CADD"/>
<path d="M360.15 89.874C377.897 84.9338 395.925 86.3075 412.17 95.3938C427.8 104.06 439.287 118.653 444.037 135.882C446.81 146.019 447.207 156.659 445.202 166.974C444.657 169.642 443.312 173.253 442.972 174.983C440.917 170.8 439.132 166.533 437.07 162.307C429.44 146.682 419.38 130.22 404.28 120.842C400.48 118.483 395.58 116.604 391.39 114.867C385.205 107.519 372.21 98.34 364.367 92.7265C363.597 92.1758 360.887 90.133 360.15 89.874Z" fill="#DAEDF1"/>
<path d="M359.668 89.6702L360.15 89.874C360.888 90.133 363.598 92.1757 364.368 92.7265C372.21 98.34 385.205 107.518 391.39 114.867C388.635 115.077 383.34 114.01 380.113 113.95C366.983 113.577 354.318 118.83 345.308 128.388C337.27 137.158 332.995 148.733 333.403 160.623C333.463 162.092 333.758 165.08 333.703 166.296C331.905 165.497 329.968 163.774 328.338 162.584C324.445 159.743 316.963 153.977 312.55 152.564L312.205 151.944C312.488 150.655 312.583 148.636 312.7 147.279C314.52 126.146 327.66 106.354 346.12 95.9242C348.04 94.8342 350.013 93.8325 352.025 92.9222C353.25 92.3755 359.24 90.1052 359.668 89.6702Z" fill="#BBE0E8"/>
<path d="M378.52 122.663C399.347 120.514 417.962 135.681 420.065 156.513C422.165 177.344 406.955 195.924 386.12 197.978C365.35 200.025 346.845 184.875 344.75 164.111C342.655 143.347 357.762 124.806 378.52 122.663Z" fill="#F1E527"/>
<path d="M67.0833 334.84C67.4311 334.26 69.3298 328.822 69.8598 327.58C72.9168 320.502 77.1771 314.007 82.4518 308.385C96.2208 293.815 113.949 286.662 133.878 287.285C136.609 287.367 139.333 287.6 142.038 287.985C143.007 288.117 146.684 288.91 147.352 288.787L147.717 289.552C149.39 296.212 154.15 307.42 158.092 312.737C167.022 324.785 173.532 331.795 177.721 346.737C183.816 350.857 190.909 357.562 197.97 360.63L198.085 360.907C197.448 362.267 197.56 365.597 197.233 367.262C196.827 369.33 196.291 371.252 195.679 373.265C190.451 390.817 178.283 405.472 161.993 413.84C158.352 415.7 154.546 417.217 150.624 418.372C149.671 418.66 145.999 419.517 145.615 419.705L145.311 419.735C128.607 423.015 113.547 420.942 98.5053 412.6C83.0003 403.945 71.5911 389.46 66.8096 372.36C63.9866 362.405 63.5438 351.927 65.5171 341.772C65.8321 340.062 66.3948 337.067 67.1878 335.665L67.0833 334.84Z" fill="#B3CADD"/>
<path d="M145.311 419.735C128.607 423.015 113.547 420.943 98.5053 412.6C83.0003 403.945 71.5911 389.46 66.8096 372.36C63.9866 362.405 63.5438 351.928 65.5171 341.773C65.8321 340.063 66.3948 337.068 67.1878 335.665C68.3546 337.413 69.4701 340.355 70.3743 342.383C72.0428 346.105 73.7526 349.813 75.5033 353.5C81.8218 366.718 92.5863 383 104.865 391.175C110.371 394.843 114.134 395.928 119.743 398.695C126.861 405.74 134.234 411.893 142.474 417.595C143.437 418.263 144.383 419.018 145.311 419.735Z" fill="#DAEDF1"/>
<path d="M177.721 346.737C183.816 350.857 190.909 357.563 197.97 360.63L198.085 360.908C197.448 362.268 197.56 365.598 197.233 367.263C196.827 369.33 196.291 371.253 195.679 373.265C190.451 390.818 178.283 405.472 161.993 413.84C158.351 415.7 154.545 417.217 150.624 418.372C149.67 418.66 145.998 419.517 145.615 419.705L145.311 419.735C144.382 419.017 143.437 418.263 142.474 417.595C134.234 411.893 126.861 405.74 119.743 398.695C120.984 398.49 122.503 398.753 123.76 398.95C138.733 401.275 153.428 397.515 164.487 386.693C172.685 378.733 177.498 367.917 177.924 356.497C178.076 353.255 177.657 350.148 177.715 346.98L177.721 346.737Z" fill="#BBE0E8"/>
<path d="M127.81 316.492C148.707 313.452 168.101 327.957 171.088 348.862C174.075 369.767 159.521 389.122 138.609 392.057C117.771 394.982 98.4978 380.49 95.521 359.66C92.5443 338.83 106.988 319.52 127.81 316.492Z" fill="#EA683D"/>
<path d="M198.085 360.907C221.664 373.147 243.755 378.517 270.515 375.637C274.38 375.207 278.218 374.565 282.01 373.715C283.545 373.377 287.695 372.35 288.957 372.227C288.257 375.047 285.352 379.675 284.272 382.8C275.877 407.055 288.455 432.192 312.603 440.41C314.58 441.082 318.878 441.987 320.078 443.28C313.255 445.727 304.717 447.985 297.612 449.412C243.233 460.345 191.775 449.96 145.615 419.705C145.998 419.517 149.67 418.66 150.624 418.372C154.545 417.217 158.352 415.7 161.993 413.84C178.283 405.472 190.451 390.817 195.679 373.265C196.291 371.252 196.827 369.33 197.233 367.262C197.56 365.597 197.448 362.267 198.085 360.907Z" fill="#34A8DA"/>
<path d="M189.126 70.2125L189.509 70.1867C192.762 69.9427 200.062 67.2247 203.689 66.2532C211.062 64.3245 218.527 62.767 226.056 61.5862C263.805 55.9325 302.382 61.451 337.032 77.461C345.752 81.472 351.56 85.0885 359.667 89.6702C359.24 90.1052 353.25 92.3755 352.025 92.9222C350.012 93.8325 348.04 94.8342 346.12 95.9242C327.66 106.354 314.52 126.146 312.7 147.279C312.582 148.636 312.487 150.655 312.205 151.944C290.56 140.069 265.777 135.158 241.24 137.883C237.702 138.3 234.185 138.877 230.7 139.611C228.38 140.11 223.389 141.546 221.296 141.466C226.333 132.443 229.236 126.052 229.026 115.315C228.884 108.048 227.606 103.309 225.072 96.5177C220.113 83.221 208.309 74.551 194.817 71.1727C192.918 70.6972 191.117 70.1855 189.126 70.2125Z" fill="#96C9C9"/>
</svg>
