<svg width="200" height="200" viewBox="23.286 0.905 301.905 324.829" fill="none" xmlns="http://www.w3.org/2000/svg">
<path d="M23.999 204.442C24.0533 201.242 24.7408 200.024 25.3355 197.325C27.094 189.345 30.2055 186.258 35.0678 180.016C39.8438 173.884 45.2325 167.781 50.366 161.855L69.3088 139.754L134.671 63.934L166.352 27.328C171.477 21.3162 177.648 12.9285 183.387 7.67299C187.139 4.21449 191.881 2.02049 196.946 1.39999C213.968 -0.84201 229.17 4.67999 242.43 15.0787C247.9 19.3675 252.29 23.9862 257.323 28.7702C265.735 36.6962 274.088 44.685 282.38 52.736C288.1 58.2495 293.953 63.5502 299.735 68.994C305.78 74.682 311.453 79.5355 315.983 86.5895C321.46 95.1202 323.465 103.765 324.768 113.645C324.173 124.509 321.258 135.462 315.158 144.627C311.235 150.519 303.918 157.45 298.788 162.518L285.973 175.4L243.068 219.023L174.315 287.552C165.945 295.79 157.829 304.72 149.172 312.79C141.046 320.363 134.66 320.107 124.165 319.622C115.789 319.237 105.575 316.898 98.375 312.35C96.7285 311.31 94.2955 308.63 92.921 307.103C86.564 300.038 81.1143 292.745 75.3625 285.245L53.1108 256.185L38.4115 237.532C31.497 228.762 23.7255 220.593 24.0578 208.697C24.09 207.539 24.1558 205.538 23.999 204.442Z" fill="#4A4A4A"/>
<path d="M193.492 25.654C195.975 26.7487 216.765 47.0677 220.01 50.128L275.27 102.336C285.608 112.231 296.078 121.983 306.68 131.591C302.15 137.085 296.753 142.26 291.775 147.371C284.31 155.038 276.54 162.644 269.188 170.404C231.38 209.792 193.12 248.748 154.42 287.26C150.858 290.83 147.252 294.538 143.544 297.945C141.789 295.38 137.601 291.17 135.402 288.435L109.299 256.385L67.6839 205.53C62.3674 199.045 57.2331 192.197 51.7651 185.895C69.7524 165.17 87.9049 144.589 106.221 124.153L143.595 81.7342L173.62 47.726C179.493 41.0515 187.35 31.9112 193.492 25.654Z" fill="#D0E5F9"/>
<path d="M111.203 146.316C111.387 146.4 112.104 146.802 112.139 146.904C112.728 148.607 113.477 151.321 114.028 152.926C115.348 156.658 116.892 160.307 118.65 163.854C125.239 177.062 134.946 188.323 147.21 196.56C169.25 211.364 195.794 202.04 216.908 190.518C219.128 189.307 226.433 183.296 227.503 183.212C227.47 184.631 225.01 187.177 224.003 188.34C207.808 207.896 177.509 220.177 153.139 208.938C134.3 200.249 117.492 182.597 112.472 162.16C111.472 158.088 110.121 150.272 111.203 146.316Z" fill="black"/>
<path d="M174.254 104.728C182.33 103.69 181.423 121.894 173.789 126.748C166.789 127.542 166.59 109.332 174.254 104.728Z" fill="black"/>
<path d="M217.24 129.806C217.677 129.806 218.087 129.816 218.517 129.925C219.665 130.22 220.64 130.972 221.22 132.006C223.595 136.309 220.662 143.329 216.21 145.507C209.577 145.718 209.082 131.257 217.24 129.806Z" fill="black"/>
<path d="M214.61 107.275C221.852 106.813 229.347 115.611 230.525 122.151C230.755 123.421 231.167 124.357 231.01 125.673C229.482 124.594 225.152 117.268 223.5 115.321C220.727 112.053 219.247 110.661 215.465 108.511C214.627 108.035 214.747 107.995 214.61 107.275Z" fill="black"/>
<path d="M173.389 80.0767C176.018 79.8192 183.447 80.4013 183.829 83.7418C183.306 83.946 181.399 83 180.049 82.8942C176.845 82.6435 173.547 82.7347 170.423 83.4827L170.092 83.5635C166.942 84.3262 163.224 86.4227 160.269 87.9602C164.181 82.9732 167.259 80.966 173.389 80.0767Z" fill="black"/>
<path d="M324.768 113.645C325.958 119.943 324.438 129.716 322.665 135.967C319.688 146.461 312.738 155.216 305.173 162.818C298.085 169.942 290.845 176.988 283.838 184.203L210.638 258.328L184.634 284.015C180.58 287.978 173.56 294.38 170.006 298.535C169.287 298.783 168.91 298.88 168.164 299.03C165.329 302.35 161.853 305.328 159.123 308.475C158.095 309.48 151.999 315.453 151.467 316.293C150.387 317.295 149.24 318.343 148.217 319.403C142.531 325.293 134.298 325.965 126.474 325.68C118.935 325.443 111.489 323.94 104.447 321.235C98.5361 318.628 97.2833 317.85 93.0936 313.018C91.1451 310.433 85.4258 302.135 83.4508 300.458C81.4361 297.345 78.3261 293.895 76.0113 290.77C65.2886 276.288 53.9366 262.195 43.1146 247.773C38.6748 241.855 33.7863 236.11 29.2636 230.253C23.0153 222.163 22.4816 214.227 23.9991 204.442C24.1558 205.539 24.0901 207.539 24.0578 208.697C23.7256 220.594 31.4971 228.763 38.4116 237.533L53.1108 256.185L75.3626 285.245C81.1143 292.745 86.5641 300.038 92.9211 307.103C94.2956 308.63 96.7286 311.31 98.3751 312.35C105.575 316.898 115.789 319.238 124.165 319.623C134.66 320.108 141.046 320.363 149.172 312.79C157.829 304.72 165.945 295.79 174.315 287.553L243.068 219.023L285.973 175.4L298.788 162.518C303.918 157.45 311.235 150.519 315.158 144.627C321.258 135.463 324.173 124.509 324.768 113.645Z" fill="black"/>
</svg>
