<svg width="200" height="200" viewBox="0 0 103.922 103.979" fill="none" xmlns="http://www.w3.org/2000/svg">
<g clip-path="url(#clip0_7095_232)">
<path d="M46.0368 0.343932C74.4979 -2.92505 100.236 17.4752 103.565 45.946C106.895 74.4167 86.5649 100.212 58.1142 103.608C29.5769 107.014 3.69686 86.5929 0.357053 58.0327C-2.98275 29.4721 17.4822 3.62324 46.0368 0.343932Z" fill="#3C7EDD"/>
<path d="M46.6291 19.1682C56.3713 17.6225 73.0634 20.4834 80.6022 27.1129C92.7801 37.8248 88.7543 56.1414 75.2634 63.3804C69.4291 66.5088 68.2061 68.996 65.4969 74.6521C65.2405 75.1842 64.5996 75.1513 64.1353 75.1589C63.0509 74.4254 62.507 72.8333 61.9492 71.5941C61.135 69.9465 60.2308 68.2094 58.6544 67.1785C51.5244 62.5134 35.8682 68.7232 23.9641 59.5011C19.7582 56.2423 17.3018 51.5311 16.6574 46.2802C15.9541 40.5401 16.7198 34.7758 20.3992 30.1152C26.7184 22.107 37.0947 20.2608 46.6291 19.1682Z" fill="#FEFEFE"/>
<path d="M36.5266 35.763C38.1411 35.4506 39.8145 35.6895 41.2765 36.4413C44.1243 37.9055 45.6972 41.0479 45.1567 44.2061C44.6197 47.3644 42.0976 49.8096 38.9275 50.2481C36.88 50.5313 34.8082 49.9375 33.2215 48.613C31.6347 47.2885 30.6785 45.3559 30.5884 43.2896C30.4325 39.6554 32.9581 36.4542 36.5266 35.763Z" fill="#3C7EDD"/>
<path d="M63.2281 35.8004C67.1777 34.9851 71.0406 37.5097 71.8825 41.4531C72.7244 45.3965 70.2299 49.281 66.2942 50.1504C62.3204 51.0288 58.3916 48.5011 57.5393 44.5192C56.6905 40.5369 59.2439 36.624 63.2281 35.8004Z" fill="#3C7EDD"/>
</g>
<defs>
<clipPath id="clip0_7095_232">
<rect width="103.922" height="103.979" fill="white"/>
</clipPath>
</defs>
</svg>
