<svg width="200" height="200" viewBox="55 56 390 389" fill="none" xmlns="http://www.w3.org/2000/svg">
<path d="M276.601 56.1832C287.655 55.8675 299.351 56.0553 310.443 56.0565L368.107 56.0681L409.487 56.0422C417.018 56.037 424.496 55.9976 432.023 56.1757C437.515 56.0126 443.231 58.8964 444.251 64.7936C445.379 71.3202 444.9 79.2266 444.896 85.9174L444.866 120.462L444.881 187.228C444.892 198.874 444.959 210.522 444.847 222.166C444.768 230.173 441.912 233.771 433.905 235.253C400.206 235.875 364.609 235.293 330.76 235.294L294.564 235.325C288.221 235.334 281.493 235.561 275.338 235.136C269.392 234.726 265.063 231.097 264.797 225.164C264.456 217.593 264.594 209.788 264.598 202.247L264.624 156.458L264.598 97.3917C264.587 87.2444 264.392 76.9985 264.741 66.8661C264.995 59.5629 270.142 56.7811 276.601 56.1832Z" fill="#FAD02D"/>
<path d="M137.247 265.157C186.78 260.723 230.539 297.26 235.013 346.789C239.487 396.319 202.985 440.106 153.46 444.623C103.877 449.14 60.0286 412.588 55.5491 363.002C51.0696 313.416 87.6577 269.596 137.247 265.157Z" fill="#FAD02D"/>
<path d="M144.449 56.1915C159.761 57.2681 164.696 66.4948 170.978 78.8234C175.596 87.8863 179.85 97.1204 184.363 106.211L211.172 159.557L226.163 189.305C228.916 194.759 231.794 200.231 234.266 205.818C235.381 208.255 235.273 210.689 235.423 213.27C236.041 223.881 228.737 233.285 218.186 234.956C213.235 235.739 206.993 235.616 201.794 235.734C183.327 236.152 164.792 235.984 146.309 235.97L98.6144 235.987C90.2997 235.989 80.7214 236.411 72.5916 235.454C62.3007 234.242 54.6387 223.245 55.0132 213.202C55.3055 205.372 59.4076 199.518 62.7378 192.605C65.2355 187.469 67.8928 182.411 70.4538 177.339L99.0695 120.625L116.863 85.5033C123.498 72.3343 127.895 58.7293 144.449 56.1915Z" fill="#E6C2BF"/>
<path d="M351.965 265.255C362.008 264.689 370.292 269.595 375.304 278.322C382.19 290.31 387.637 302.823 393.773 315.178L418.888 365.127L434.789 396.716C437.676 402.425 441.14 408.798 443.602 414.507C446.5 422.615 444.869 431.701 438.8 437.759C431.641 444.904 424.867 444.094 415.574 444.375C410.679 444.521 405.671 444.428 400.734 444.428L358.102 444.424L307.429 444.454C298.995 444.465 289.897 444.799 281.534 444.146C274.179 443.569 267.544 436.098 265.494 429.343C264.103 424.714 264.141 419.773 265.599 415.166C267.323 409.844 273.474 398.452 276.241 393.031L293.99 358.001L320.507 305.544C324.848 296.926 329.11 288.256 333.612 279.716C337.822 271.732 343.321 267.744 351.965 265.255Z" fill="#E6C2BF"/>
</svg>
