<svg width="200" height="200" viewBox="80 59 578.222 567" fill="none" xmlns="http://www.w3.org/2000/svg">
<path d="M582.467 394.964C582.436 395.416 582.467 395.165 582.316 395.798C568.758 454.142 532.24 504.548 481.032 535.608C431.944 566.216 372.615 575.803 316.388 562.215C259.269 547.72 210.08 511.464 179.325 461.192C148.867 411.103 138.238 350.653 152.029 293.381C165.737 236.454 204.485 182.589 254.732 152.246C297.147 127.203 346.564 116.664 395.502 122.226C401.918 122.997 408.778 123.754 415.037 125.307C423.754 126.792 432.283 129.436 440.633 132.299C484.764 147.777 522.934 176.707 549.765 215.016C584.267 263.746 596.345 320.438 585.762 378.976C585.022 383.082 583.787 391.402 582.467 394.964Z" fill="#3ABBB5"/>
<path d="M368.819 189.269C369.559 189.603 370.473 190.092 370.865 190.823C373.724 196.145 376.345 202.081 378.933 207.523C384.242 218.621 389.607 229.692 395.029 240.734L475.642 405.803L500.129 456.57L506.547 469.989C507.67 472.278 510.874 477.001 509.752 479.438C506.999 481.31 479.596 479.792 474.551 480.366C473.977 480.432 469.989 480.473 469.277 480.419C468.449 480.363 467.643 480.134 466.907 479.748C464.163 478.281 463.009 473.903 461.626 471.203C455.142 458.542 449.316 445.609 443.233 432.764L404.812 352.721L380.918 303.429L373.407 287.78C372.055 284.972 369.547 280.136 368.706 277.407C367.479 281.371 361.372 292.968 359.056 297.636L339.85 336.627C331.446 353.308 323.22 370.076 315.174 386.933C327.742 386.381 343.774 386.901 356.312 386.826C361.596 386.792 394.599 386.459 396.537 387.366C396.559 389.73 376.017 400.744 373.152 402.45C341.474 421.254 309.462 439.49 277.132 457.147C262.567 465.241 248.198 473.774 233.474 481.533C224.965 485.657 221.69 484.512 226.136 475.107C229.438 468.12 233.004 461.095 236.402 454.167L266.854 392.418L327.691 269.04C339.742 244.476 351.679 219.769 363.989 195.334C365.245 192.842 366.52 190.914 368.819 189.269Z" fill="white"/>
<path d="M152.574 160.023C153.695 159.814 165.103 146.15 167.057 144.13C174.198 136.817 181.739 129.904 189.644 123.425C222.154 96.9907 260.021 77.9406 300.621 67.5928C352.169 54.6904 406.285 56.3453 456.948 72.3734C469.725 76.466 483.669 81.9165 495.215 88.7886C498.514 87.0801 504.324 86.8392 507.654 88.5873C514.64 91.1698 517.851 99.5087 515.214 106.269C514.646 107.688 513.815 108.986 512.768 110.096C504.026 120.396 489.351 114.051 487.674 101.29C481.807 98.0473 470.98 93.5009 464.708 91.0309C448.394 84.6794 431.446 80.101 414.153 77.3755C374.13 70.4138 333.045 72.7468 294.069 84.1939C244.069 98.5713 199.147 128.872 164.693 167.614C165.9 170.095 166.74 171.83 167.415 174.46C170.814 187.705 160.658 199.509 147.314 199.77C145.623 199.803 143.946 199.762 142.255 199.719C121.305 235.207 107.192 270.623 102.436 311.758C101.653 318.527 100.603 325.237 100.286 332.077C113.057 337.565 112.868 354.796 100.074 360.088C92.607 363.174 83.4138 358.463 80.7758 350.897C79.5587 347.383 79.7805 343.53 81.3929 340.179C82.9708 336.902 85.291 335.079 88.1286 332.983C87.3839 325.135 88.7108 313.717 89.6651 305.868C93.2141 276.841 101.405 248.573 113.925 222.147C119.225 211.044 124.718 201.489 130.934 190.969C127.792 182.728 126.263 170.429 134.948 164.788C135.145 164.607 135.344 164.429 135.547 164.255C140.725 159.834 146.174 159.573 152.574 160.023Z" fill="#0A315C"/>
<path d="M507.654 88.5873C514.64 91.1698 517.851 99.5087 515.214 106.269C514.646 107.688 513.816 108.986 512.768 110.096C512.781 108.345 513.518 108.223 514.129 106.865C516.741 101.051 514.483 92.3694 508.438 89.5363C507.754 89.2161 507.939 89.2104 507.654 88.5873Z" fill="#072041"/>
<path d="M134.948 164.787C135.145 164.607 135.345 164.429 135.547 164.255C140.725 159.834 146.174 159.573 152.574 160.023L152.276 160.568C149.991 161.184 146.732 160.906 144.556 161.145C142.771 161.341 136.967 164.037 135.361 164.95L134.948 164.787Z" fill="#072041"/>
<path d="M638.269 347.564C642.404 347.482 646.741 347.656 646.534 352.889C646.108 363.666 645.129 374.404 643.599 385.079C634.907 445.013 606.875 500.469 563.766 543C523.131 583.547 475.244 611.386 418.42 621.744C406.179 623.974 389.654 626.028 377.232 626C375.437 625.972 371.072 626.059 369.876 624.861C367.992 622.973 368.115 615.061 370.275 613.396C371.522 612.433 377.1 612.524 378.921 612.433C383.163 612.207 387.403 611.916 391.636 611.552C428.643 608.014 464.495 596.743 496.874 578.472C560.615 541.463 606.897 480.479 625.397 409.127C629.228 393.917 631.703 378.4 632.784 362.75C632.969 360.091 633.192 349.893 634.449 348.37C635.65 347.61 636.81 347.682 638.269 347.564Z" fill="#2DADB3"/>
<path d="M584.646 150.761C595.84 150.643 605.018 159.605 605.169 170.799C605.319 181.993 596.386 191.199 585.195 191.384C573.957 191.569 564.703 182.589 564.553 171.348C564.399 160.107 573.405 150.88 584.646 150.761Z" fill="#66D6B5"/>
<path d="M636.171 282.596C646.92 281.24 656.731 288.865 658.07 299.618C659.409 310.372 651.771 320.171 641.016 321.493C630.285 322.813 620.515 315.193 619.179 304.464C617.843 293.734 625.447 283.949 636.171 282.596Z" fill="#66D6B5"/>
<path d="M614.992 213.01C625.669 211.221 635.763 218.457 637.5 229.143C639.237 239.829 631.953 249.89 621.257 251.574C610.64 253.246 600.666 246.022 598.941 235.41C597.216 224.798 604.391 214.787 614.992 213.01Z" fill="#66D6B5"/>
</svg>
