<svg width="200" height="200" viewBox="0 0 84.765 166.603" fill="none" xmlns="http://www.w3.org/2000/svg">
<g clip-path="url(#clip0_7118_320)">
<path d="M26.1426 9.87425C25.7054 8.65425 25.1554 7.25325 25.6101 6.009C26.1309 4.5835 26.5028 2.88925 27.8628 2.11275C30.2358 2.2605 30.5384 5.52825 33.1099 6.34525C36.1599 6.03475 34.3794 0.246 38.1304 0C40.8199 0.925 41.2939 5.8575 43.5319 6.349C43.9726 5.4075 44.4954 4.24775 45.1304 3.43925C50.5544 -3.465 50.8279 7.8775 51.1556 10.3993C52.9174 9.003 56.9294 5.42325 59.4044 6.02C59.8989 6.1375 60.3221 6.4555 60.5726 6.89775C61.6069 8.7165 60.3029 12.4908 59.7804 14.4643C66.5446 10.2128 72.1804 13.4562 65.7731 19.1115C67.8359 19.1675 73.3064 18.7777 74.2826 20.5575C74.2579 22.1475 70.8256 26.314 69.6836 27.898C74.7934 28.1702 75.3301 26.9323 78.3369 31.755C76.1226 33.5428 73.8929 34.535 71.2856 35.5367C79.6904 40.9657 83.0839 41.927 71.6094 45.9473C73.3946 47.281 77.5509 50.5652 77.0426 53.0315C75.9276 54.2992 72.6836 54.1688 70.6546 54.3738C71.8346 55.866 74.7603 58.8837 73.1453 60.608C71.4253 61.352 66.8683 60.7208 64.5776 60.658C65.7691 62.3545 66.5628 63.667 67.0223 65.764C68.2013 71.1445 62.8119 69.4347 60.2731 67.4227C63.5404 77.7735 56.5026 73.2818 51.6876 70.175C51.7039 72.1588 52.0356 76.0465 51.2406 77.6622C49.5679 79.0832 48.1061 77.7393 46.4524 76.7875C45.7359 75.6583 44.6439 73.8553 43.2784 73.421C42.5594 74.716 42.6121 76.964 42.2449 77.6823C41.8894 77.673 41.7219 77.7342 41.3614 77.8047C41.2191 78.009 41.0741 78.211 40.9261 78.4108C40.2736 79.2905 39.7839 79.8765 38.6581 80.0415C37.0536 79.2133 35.7046 74.3355 34.7951 72.6825C33.3764 74.346 30.2981 79.501 27.7414 78.3055C26.3669 76.596 26.5179 73.2935 26.5189 71.1195C24.5201 72.042 21.0804 74.8345 19.0001 73.349C17.9309 71.4857 18.6084 67.9772 18.8936 65.8237C17.3014 66.5392 12.2728 68.7687 10.7756 68.1062C9.2506 65.9695 11.6779 63.4298 11.9154 60.9343C10.9901 60.2625 7.0086 61.2003 5.8446 59.987C4.1486 58.2198 8.01385 53.6135 9.32285 52.3775C7.71086 52.2177 3.24085 51.9365 2.0176 51.5262C-1.33665 48.2917 5.32486 45.0705 7.97686 44.411C5.25236 42.8922 3.63461 41.7342 0.723612 40.47C0.326362 39.5635 -0.0641399 38.9313 0.00886008 37.9633C0.80836 36.277 2.7446 36.1045 4.20185 35.203C4.9076 34.7662 5.65386 34.158 6.30711 33.636C4.38986 32.1687 1.92835 30.9745 0.896601 28.5655C0.955851 26.1505 5.94836 27.2377 7.62011 25.5682C7.39911 23.6247 4.31211 21.2142 5.71261 19.2865C6.62586 18.9027 12.9413 18.975 14.4253 18.944C13.8648 18.4655 12.5551 17.4718 12.3664 16.8398C11.8861 15.2308 11.1429 13.1523 11.7374 11.5335C13.7161 9.651 16.0304 12.2195 17.5694 12.0317C18.0549 10.7822 16.8401 9.1035 17.4106 7.22225C19.1881 5.2545 24.1646 8.76775 26.1426 9.87425ZM41.7956 21.1123C37.7111 22.855 38.1601 16.793 36.8594 15.6185C35.6579 17.0572 37.6821 21.038 35.2996 22.4415C34.6446 22.4768 34.6229 22.5147 33.9854 22.2785C33.6171 20.8472 33.4041 19.025 32.1986 18.3123C31.1734 19.304 31.5816 22.4008 31.6546 23.7768C32.3586 23.6508 33.6201 23.2658 34.3561 23.0628C37.0321 22.5693 39.1696 22.225 41.9091 22.343C42.5863 22.4638 43.6741 22.6965 44.3204 22.7675C44.5166 17.874 44.5696 16.377 43.2504 11.6575C42.5816 14.7693 42.1814 17.952 41.7956 21.1123ZM52.3624 27.7163C52.7091 26.7843 53.2069 25.6932 53.6029 24.7622C54.2811 24.0657 54.6906 22.7365 54.9989 21.8237L54.7938 21.5005C53.8021 21.7907 52.6089 23.094 51.8719 23.842C51.0381 24.7345 50.9269 24.9187 50.3586 25.9917C50.9949 26.7632 51.4041 27.4058 52.3624 27.7163ZM63.8551 51.0893C59.6661 49.7513 59.9684 49.608 56.3901 47.2683C55.6469 47.7643 55.3466 48.0145 55.1701 48.9893C57.1161 49.6145 57.3091 49.7715 58.7206 51.1887C60.7339 51.266 61.8659 51.2285 63.8551 51.0893ZM46.2539 57.2792L44.3161 58.1402C44.5974 59.169 44.8426 60.3033 45.3329 61.2335C47.0971 63.2538 46.8556 65.639 48.1779 65.9933C48.3981 63.6993 48.2646 61.9645 47.1181 59.9675C46.6576 58.9628 46.5261 58.3452 46.2539 57.2792ZM22.5151 53.7675L24.9136 52.8243C24.4341 51.8103 24.3003 51.7097 23.2801 51.5077C22.5746 51.8505 21.4696 52.3068 20.9383 52.8233C20.0431 53.7035 19.0346 54.419 18.7786 55.5538L19.0373 55.7173C20.8773 55.1948 20.9636 54.89 22.5151 53.7675ZM48.6954 22.7673C49.0404 20.5508 49.9999 19.3243 50.0559 17.732L49.7099 17.7723C48.9974 18.3903 48.2944 18.8908 47.8516 19.7065C46.8531 21.246 46.6136 21.8735 46.3816 23.7185C47.1331 24.224 47.5359 24.5413 48.3919 24.8725L48.6954 22.7673ZM35.1269 66.035C35.8929 63.7745 36.8936 61.401 37.7049 59.0755L35.6004 58.8125C34.8381 59.355 34.6139 60.541 34.4761 61.4673C34.1291 62.8058 33.9456 65.3495 33.7681 65.8622C33.9829 66.533 33.9828 66.707 34.4683 67.1785L34.8206 67.0013L35.1269 66.035ZM54.9821 52.4035L54.0809 50.9882C53.4879 51.5472 52.5698 52.4208 52.6278 53.3035L53.8746 54.1355C54.7828 54.923 55.8426 56.1355 57.0874 55.952C57.1249 54.7665 55.5391 53.849 54.9821 52.4035ZM30.3469 62.678C31.2734 61.5852 31.7301 59.2912 32.0831 57.8625L31.9769 57.669C31.2034 57.127 31.0531 57.1077 30.1209 56.9182C29.7341 58.68 29.4996 59.8062 29.3144 61.6252C28.5336 63.0162 27.6534 63.7685 26.8709 65.0793C28.3576 64.2093 29.0066 63.76 30.3469 62.678ZM62.2869 44.6955C63.2799 45.2997 63.7456 45.7055 64.8706 46.077L65.2049 45.897C64.7004 44.666 63.3806 44.2985 62.1641 43.7833L62.2869 44.6955ZM20.4499 32.2605L20.5171 31.3405C19.5303 30.4085 17.8623 30.775 16.5288 30.8565L16.1511 31.235C16.5731 31.8233 17.1146 31.9253 17.8888 32.0475C18.7358 32.1835 19.5921 32.2545 20.4499 32.2605ZM20.2089 38.9048C21.1224 38.3865 20.9794 37.6875 21.1026 36.7335C19.2034 36.6218 16.7946 36.2778 15.1094 37.103L15.1101 37.4858C16.5011 38.4783 18.4991 38.6318 20.2089 38.9048ZM28.4346 55.3628C28.1166 54.9258 27.2529 54.7448 26.6401 54.5223L25.8554 55.4507C25.1561 56.48 23.2286 58.912 23.5611 60.0985C24.6874 60.0102 26.8196 57.6733 27.4256 56.7238C27.5164 56.1373 27.9914 55.796 28.4346 55.3628ZM53.0944 60.433C52.5074 57.8328 51.7664 57.134 50.1651 55.022C49.1296 55.8807 49.0839 55.9523 48.9284 57.5075C51.0671 58.883 51.0049 59.859 52.5606 61.2293C53.1671 61.7733 53.5874 62.107 54.3304 62.103L54.3206 61.581C53.9089 61.158 53.5356 60.8255 53.0944 60.433ZM27.8664 26.092C28.4794 25.6715 29.0566 25.2063 29.6426 24.7488C28.9314 23.655 26.9921 20.7225 25.9281 20.072L25.6741 20.2415C25.5596 24.6043 26.3431 22.2135 27.8664 26.092ZM21.5951 46.638C20.0516 47.6893 16.8524 47.668 15.7519 49.1222C16.5729 49.7487 20.4501 49.295 21.5386 49.147C21.9023 49.0972 22.2653 49.0437 22.6278 48.9865C22.4431 48.2655 22.1089 47.4205 21.8504 46.7085L21.5951 46.638ZM39.9371 58.9565C40.1648 61.6333 40.6491 64.6835 41.0154 67.3743C42.0561 63.5583 42.1716 62.521 42.1629 58.5607C41.4669 58.6575 40.5896 58.7455 39.9371 58.9565Z" fill="#FBCE18"/>
<path d="M34.3562 23.0627C37.0322 22.5692 39.1697 22.225 41.9092 22.343C42.5865 22.4637 43.6742 22.6965 44.3205 22.7675C44.9607 23.0702 45.7357 23.4642 46.3817 23.7185C47.1332 24.224 47.536 24.5412 48.392 24.8725C48.8027 25.1165 49.9832 25.8562 50.3587 25.9917C50.995 26.7632 51.4042 27.4057 52.3625 27.7162C53.201 29.1657 55.0327 31.0945 55.5037 32.025C55.6852 33.005 55.842 33.7892 56.0922 34.7597C56.3535 35.9472 56.658 37.2172 56.8552 38.4077L57.2425 40.258C57.2007 41.081 57.1435 41.9397 57.1257 42.7602L56.8777 44.8765C56.537 45.649 56.1825 46.328 56.0402 47.1572L56.3902 47.2682C55.647 47.7642 55.3467 48.0145 55.1702 48.9892C54.457 49.706 54.4105 49.843 54.059 50.7977L54.081 50.9882C53.488 51.5472 52.57 52.4207 52.628 53.3035L52.2162 53.0655C51.3555 53.666 50.871 54.2525 50.1652 55.022C49.1297 55.8807 49.084 55.9522 48.9285 57.5075L48.7997 56.309L48.4007 56.097C47.6797 56.481 46.9642 56.8752 46.254 57.2792L44.3162 58.1402C43.5962 58.2682 42.8785 58.4085 42.163 58.5607C41.467 58.6575 40.5897 58.7455 39.9372 58.9565C39.2507 58.8417 38.415 58.9935 37.705 59.0755L35.6005 58.8125C34.547 58.7737 33.313 57.5445 32.0832 57.8625L31.977 57.669C31.2035 57.127 31.0532 57.1077 30.121 56.9182L30.1585 56.6177L28.4347 55.3627C28.1167 54.9257 27.253 54.7447 26.6402 54.5222L26.7647 54.413C26.428 53.777 25.6587 53.1377 25.115 52.6197L24.9137 52.8242C24.4342 51.8102 24.3005 51.7097 23.2802 51.5077C23.6157 51.2257 23.5165 51.3407 23.7567 50.9507C23.4135 50.1315 23.11 49.7122 22.628 48.9865C22.4432 48.2655 22.109 47.4205 21.8505 46.7085L21.5952 46.638C21.806 45.8467 20.836 40.2605 20.6662 39.1397L20.209 38.9047C21.1225 38.3865 20.9795 37.6875 21.1027 36.7335C21.5392 33.9132 25.833 28.255 27.8665 26.092C28.4795 25.6715 29.0567 25.2062 29.6427 24.7487C30.1047 24.4395 31.108 24.0252 31.6547 23.7767C32.3587 23.6507 33.6202 23.2657 34.3562 23.0627Z" fill="#574322"/>
<path d="M36.8178 27.0178C39.1373 26.835 42.3376 26.917 44.5066 27.799C50.2098 30.1178 54.9938 37.9613 52.3238 43.9895C50.2158 48.7493 46.8586 51.9158 42.0908 53.8685C20.1728 55.725 21.2491 29.913 36.8178 27.0178Z" fill="#2F1D0F"/>
<path d="M42.1624 58.5608C42.8779 58.4085 43.5957 58.2683 44.3157 58.1403C44.5969 59.169 44.8422 60.3033 45.3324 61.2335C47.0967 63.2538 46.8552 65.639 48.1774 65.9933C48.3857 67.0513 50.2709 69.2945 51.0324 70.113C51.2937 70.1603 51.4674 70.2328 51.6872 70.175C51.7034 72.1588 52.0352 76.0465 51.2402 77.6623C49.5674 79.0833 48.1057 77.7393 46.4519 76.7875C45.7354 75.6583 44.6434 73.8553 43.2779 73.421C42.5589 74.716 42.6117 76.964 42.2444 77.6823C41.8889 77.673 41.7214 77.7343 41.3609 77.8048C41.2187 78.009 41.0737 78.211 40.9257 78.4108C40.2732 79.2905 39.7834 79.8765 38.6577 80.0415C37.0532 79.2133 35.7042 74.3355 34.7947 72.6825L34.3342 72.5633C33.8372 70.782 33.0797 67.6345 33.7677 65.8623C33.9824 66.533 33.9824 66.707 34.4679 67.1785L34.8202 67.0013L35.1264 66.035C35.8924 63.7745 36.8932 61.401 37.7044 59.0755C38.4144 58.9935 39.2502 58.8418 39.9367 58.9565C40.1644 61.6333 40.6487 64.6835 41.0149 67.3743C42.0557 63.5583 42.1712 62.521 42.1624 58.5608Z" fill="#FBCE18"/>
<path d="M57.125 42.7603C58.7327 42.8638 60.8747 42.8393 62.1635 43.7833L62.2862 44.6955C60.9347 45.9418 58.6405 45.1673 56.877 44.8765L57.125 42.7603Z" fill="#FDF8B7"/>
<path d="M56.8555 38.4078C58.3017 38.0813 59.7795 37.6565 61.2052 38.1278L61.7002 38.5998C61.4465 40.3583 58.6517 40.341 57.2427 40.258L56.8555 38.4078Z" fill="#FDF8B7"/>
<path d="M55.5039 32.025C56.7812 32.0755 58.9692 32.452 59.9762 33.2545L60.0632 33.7207C59.1324 34.614 57.4072 34.6165 56.0924 34.7597C55.8422 33.7892 55.6854 33.005 55.5039 32.025Z" fill="#FDF8B7"/>
<path d="M42.2446 77.6823C42.6118 76.964 42.5591 74.716 43.2781 73.421C44.6436 73.8553 45.7356 75.6583 46.4521 76.7875C47.3561 82.409 48.2103 93.054 49.3156 99.0698C49.4518 99.1683 49.5878 99.2668 49.7241 99.3653L49.9758 99.3778C50.6098 100.087 50.9131 100.597 51.4141 101.386C50.6061 103.085 49.5998 105.085 49.4676 106.982C48.9036 115.073 49.6988 123.265 49.2388 131.379C49.1808 132.406 49.1726 133.525 49.2003 134.549C50.3663 133.097 54.2236 129.249 54.3361 128.576C55.7433 120.179 59.3666 115.552 68.3208 114.376C72.0613 113.884 80.6248 115.171 84.7418 117.376C84.9073 118.375 84.1613 119.931 83.5131 120.705C79.4986 125.495 74.7056 132.929 68.0523 133.98C63.3043 134.73 59.5736 134.323 56.0276 131.075C45.3268 144.203 49.7416 150.816 48.2946 165.969C47.2373 166.291 46.2198 166.728 45.1641 166.569C44.7298 166.272 44.4276 166.189 44.4023 165.584C43.7971 150.993 45.6936 136.157 45.3556 121.57C43.6458 119.323 37.4636 112.853 36.7701 111.415C31.2685 118.39 20.4026 117.227 14.3198 111.584C10.9338 108.442 6.73205 104.536 4.14555 100.785C3.02855 99.1658 12.3383 96.1305 13.5435 95.8285C19.0748 94.2095 25.15 93.9503 30.2948 96.9093C34.0828 99.0883 37.237 103.147 38.3605 107.381C39.1415 110.201 43.4231 113.223 45.8003 114.954C45.2001 106.261 44.5453 97.4423 43.9368 88.7438C43.728 85.756 42.5771 81.4273 42.2446 77.6823Z" fill="#408B26"/>
<path d="M36.7701 111.415C31.2685 118.389 20.4026 117.227 14.3198 111.584C10.9338 108.442 6.73205 104.536 4.14555 100.785C3.02855 99.1657 12.3383 96.1305 13.5435 95.8285C19.0748 94.2095 25.15 93.9502 30.2948 96.9092C34.0828 99.0882 37.237 103.147 38.3605 107.381L38.1473 107.364C33.9741 106.998 12.1818 101.197 11.1088 101.561C11.8956 102.182 12.9608 101.738 13.9778 102.066C21.1713 104.386 29.9648 105.177 35.9498 110.12C36.2765 110.389 36.9171 110.97 36.7701 111.415Z" fill="#408B26"/>
<path d="M52.0503 96.1065C52.9818 94.7505 53.1581 92.8663 53.5928 91.2823C56.9663 78.994 68.6543 79.9038 78.2473 82.4353C78.7843 83.099 79.4791 83.902 79.9321 84.6058C78.0213 89.092 71.4616 96.8073 66.6588 98.6643C60.8021 100.929 57.3516 97.4875 53.7246 97.4588C52.9641 98.8623 52.4211 100.151 51.4148 101.386C50.9138 100.597 50.6106 100.087 49.9766 99.3778C50.7018 98.111 51.1971 97.2835 52.0503 96.1065Z" fill="#408B26"/>
</g>
<defs>
<clipPath id="clip0_7118_320">
<rect width="84.7652" height="166.603" fill="white"/>
</clipPath>
</defs>
</svg>
