<svg width="200" height="200" viewBox="0.936 0.68 18.39 21.672" fill="none" xmlns="http://www.w3.org/2000/svg">
<g clip-path="url(#clip0_7104_396)">
<path d="M12 18.224C12 19.52 11.488 20.528 10.464 21.248C9.456 21.984 8.048 22.352 6.24 22.352C5.392 22.352 4.496 22.256 3.552 22.064C2.608 21.872 1.736 21.552 0.936 21.104L1.728 18.92C2.496 19.304 3.256 19.576 4.008 19.736C4.76 19.912 5.496 20 6.216 20C7.224 20 7.992 19.864 8.52 19.592C9.048 19.32 9.312 18.96 9.312 18.512C9.312 17.824 8.904 17.48 8.088 17.48H5.208C4.424 17.48 3.792 17.352 3.312 17.096C2.832 16.84 2.48 16.512 2.256 16.112C2.032 15.696 1.92 15.264 1.92 14.816C1.92 14.352 2.016 13.92 2.208 13.52C2.416 13.104 2.696 12.72 3.048 12.368C2.472 12.016 2.008 11.544 1.656 10.952C1.32 10.36 1.152 9.648 1.152 8.816C1.152 7.872 1.352 7.088 1.752 6.464C2.152 5.84 2.696 5.376 3.384 5.072C4.088 4.752 4.864 4.592 5.712 4.592H6.12C6.44 4.592 6.752 4.616 7.056 4.664C7.36 4.696 7.648 4.752 7.92 4.832H12.264V7.184L9.864 6.8C10.104 7.056 10.288 7.376 10.416 7.76C10.56 8.128 10.632 8.584 10.632 9.128C10.632 9.944 10.424 10.648 10.008 11.24C9.608 11.816 9.064 12.264 8.376 12.584C7.704 12.888 6.952 13.04 6.12 13.04H5.712C5.392 13.04 5.088 13.016 4.8 12.968C4.624 13.16 4.496 13.36 4.416 13.568C4.336 13.76 4.296 13.944 4.296 14.12C4.296 14.68 4.656 14.96 5.376 14.96H8.304C9.408 14.96 10.296 15.248 10.968 15.824C11.656 16.384 12 17.184 12 18.224ZM6.12 10.784C6.616 10.784 7.048 10.616 7.416 10.28C7.8 9.944 7.992 9.456 7.992 8.816C7.992 8.176 7.8 7.688 7.416 7.352C7.048 7.016 6.616 6.848 6.12 6.848H5.712C5.2 6.848 4.752 7.016 4.368 7.352C4 7.688 3.816 8.176 3.816 8.816C3.816 9.456 4 9.944 4.368 10.28C4.752 10.616 5.2 10.784 5.712 10.784H6.12Z" fill="black"/>
<path d="M16.974 12.224H14.814L15.63 5.96L16.566 0.68H19.326L18.39 5.96L16.974 12.224ZM16.494 17H13.59L14.094 14.144H16.998L16.494 17Z" fill="#06B6D4"/>
</g>
<defs>
<clipPath id="clip0_7104_396">
<rect width="20" height="23" fill="white"/>
</clipPath>
</defs>
</svg>
