<svg width="200" height="200" viewBox="0.623 0.554 150.682 113.39" fill="none" xmlns="http://www.w3.org/2000/svg">
<g clip-path="url(#clip0_7097_283)">
<path d="M123.722 0.561206C127.241 0.611722 129.753 2.42221 129.488 6.13759C129.116 11.3771 128.168 16.6345 127.634 21.8703C127.479 23.3883 127.281 25.3124 126.87 26.7444C128.722 27.367 130.611 27.9757 132.234 29.1553C137.555 33.0227 139.396 39.8769 140.366 46.0497C140.639 47.7906 140.574 49.456 140.884 51.1953L141.184 51.3661C145.578 50.7847 150.931 51.2787 151.127 56.9364C151.381 64.6036 151.338 72.346 151.158 80.0163C151.016 86.0508 145.353 85.821 140.823 85.3355C141.18 92.3386 138.129 105.624 130.763 108.753C127.893 109.972 121.539 110.522 118.136 110.842C112.178 111.403 105.877 112.514 99.9694 113.017C85.5893 114.189 71.1401 114.25 56.7504 113.2C52.0193 112.857 46.5599 112.057 41.6856 111.512C35.8653 110.862 27.9143 110.418 22.5433 108.553C19.8011 107.602 16.4323 103.467 15.263 100.666C13.1594 96.2301 10.9572 90.3743 11.1029 85.4016C6.00293 85.9676 1.0495 85.8262 0.849505 79.3405C0.607693 71.498 0.387205 63.3078 1.15571 55.5116C1.24721 54.5831 2.57801 52.9151 3.1813 52.1503C5.75138 50.9563 8.63823 51.1828 11.3859 51.3671C12.4673 43.9666 14.9603 35.175 20.6794 29.9623C24.0573 26.8836 27.3702 26.9132 31.6562 26.7244C30.7299 21.5217 27.8617 7.68287 29.0869 3.10355C32.135 0.502616 35.3072 -1.00706 38.2002 3.09361C40.1852 5.90696 41.2187 9.18489 42.7232 12.2345C44.7834 16.4107 46.7593 20.5273 48.3247 24.9331C51.9773 24.3342 56.7972 24.1715 60.5422 23.9243C66.8962 23.5048 73.8893 22.7591 80.2375 23.0601C85.2139 23.2961 90.5408 23.8123 95.5442 24.1023C98.7844 24.2901 106.989 24.6485 109.988 25.2739C110.732 21.4778 114.048 15.5076 115.692 11.8042C117.455 7.83608 119.279 1.81726 123.722 0.561206Z" fill="#9575CD"/>
<path d="M74.3335 31.8749C87.103 31.4962 101.527 32.8247 114.166 34.2748C117.429 34.6491 124.226 35.1938 127.17 36.0471C133.838 42.7721 133.203 63.3672 133.161 72.6615C133.119 81.8665 132.793 93.3679 127.31 101.065C112.176 103.464 93.1779 105.197 77.7825 105.3C73.4244 105.343 68.8308 105.069 64.4672 104.859C54.8109 104.468 45.1777 103.63 35.599 102.347C32.9248 101.981 26.7085 101.585 25.0522 99.7828C19.8253 94.096 18.9473 82.1102 18.9104 74.4964C18.8545 62.9051 18.4521 47.1159 25.5818 37.3949C26.2385 36.672 27.5016 35.853 28.4802 35.713C37.0845 34.4816 46.5023 33.3468 55.1285 32.6779C61.5222 32.245 67.9259 31.9771 74.3335 31.8749Z" fill="#FEFEFE"/>
<path d="M60.8981 73.7751C62.0931 73.8271 74.6441 81.0566 75.9439 82.1928C78.6699 80.7398 81.4294 79.0844 84.1071 77.5246C86.0596 76.3762 87.9101 75.1129 89.9891 74.2034C92.6285 72.9929 95.3116 75.8342 94.5959 78.4792C94.1572 80.1007 92.8051 80.6887 91.4578 81.5742C87.1933 84.2362 82.3254 86.792 77.9123 89.2739C77.1672 89.6929 75.8733 90.0233 75.052 89.5803C69.4276 86.546 63.3005 83.4786 58.222 79.6291C57.8299 79.3283 57.5748 77.5578 57.7885 76.9133C58.3775 75.1365 59.4209 74.6148 60.8981 73.7751Z" fill="#4B5156"/>
<path d="M105.096 48.5789C115.468 47.9392 112.338 59.9814 112.638 66.711C112.762 69.5077 110.172 72.0555 107.43 72.766C98.9711 73.1813 99.6092 65.8077 99.7167 59.7816C99.8067 54.7334 98.8939 50.5497 105.096 48.5789Z" fill="#4B5156"/>
<path d="M44.9112 48.5746C52.6242 48.132 52.1944 55.3765 52.0124 60.815C51.8327 66.1895 53.0024 71.1514 46.6025 72.7905C41.6335 72.9551 38.6891 69.4769 39.1713 64.6866C39.8021 58.4179 36.6478 50.4541 44.9112 48.5746Z" fill="#4B5156"/>
</g>
<defs>
<clipPath id="clip0_7097_283">
<rect width="152" height="114" fill="white"/>
</clipPath>
</defs>
</svg>
