<svg width="200" height="200" viewBox="12.137 77.82 175.068 43.356" fill="none" xmlns="http://www.w3.org/2000/svg">
<path d="M127.037 77.8566C133.316 77.9091 140.218 77.0702 145.5 81.2082C151.208 85.6794 151.4 96.2311 146.85 101.598C145.203 103.553 143.299 104.538 140.995 105.448C141.897 106.7 142.864 108.247 143.726 109.544L148.007 115.953C148.423 116.587 150.333 119.253 150.221 119.799C149.848 120.017 146.306 119.922 145.651 119.918L143.991 119.926C143.23 118.943 142.154 117.113 141.473 116.022L137.773 110.104C137.291 109.317 136.082 107.199 135.516 106.58C134.904 106.564 134.267 106.559 133.655 106.568C130.156 106.617 126.591 106.46 123.098 106.597C123.009 109.581 123.133 112.71 123.09 115.701C123.076 116.586 123.163 119.004 122.99 119.731C122.678 120.025 118.131 120.019 117.629 119.722C117.405 119.135 117.516 111.233 117.516 110.121L117.515 94.1076L117.516 83.588C117.518 81.9025 117.507 80.1556 117.547 78.466C117.552 78.2245 117.732 78.0349 117.892 77.8634C120.891 77.8033 124.039 77.8315 127.037 77.8566ZM123.86 82.922C123.69 82.923 123.532 82.9252 123.361 82.9338C123.167 83.1961 123.11 83.2184 123.098 83.5871C123.068 84.5671 123.078 85.5765 123.078 86.5568V92.2892L123.081 97.7726C123.081 98.8286 123.038 100.185 123.15 101.202L123.213 101.296C124.564 101.53 134.894 101.494 136.299 101.277C137.779 101.048 139.398 100.534 140.632 99.673C140.944 99.4543 141.268 99.2152 141.547 98.9533C143.814 96.6643 144.258 95.1484 144.239 91.965C144.188 83.0811 136.475 82.9106 129.886 82.9113L123.86 82.922Z" fill="#FE652E"/>
<path d="M165.15 77.8595C171.058 77.8784 178.215 77.3359 182.996 81.4366C185.358 83.4613 186.87 86.5486 187.099 89.6407C187.422 93.9829 187.151 98.0848 184.183 101.566C181.334 104.906 177.673 106.108 173.472 106.428C171.924 106.633 170.171 106.567 168.596 106.565C165.992 106.545 163.388 106.548 160.785 106.574C160.578 110.882 160.917 115.329 160.683 119.63C160.654 120.107 155.779 119.986 155.303 119.755C154.992 119.603 155.097 116.865 155.097 116.497L155.098 109.03L155.101 89.3185C155.1 85.8335 155.09 82.3425 155.111 78.8575C155.113 78.4606 155.133 78.2238 155.338 77.8712C158.553 77.8198 161.942 77.8493 165.15 77.8595ZM170.519 82.9366C167.549 82.9397 164.228 82.9413 161.211 82.9757C160.902 83.048 160.945 82.9881 160.775 83.1935C160.701 83.8004 160.731 84.9998 160.73 85.6485L160.728 90.0021C160.728 93.48 160.612 97.9442 160.778 101.346C162.583 101.443 164.588 101.428 166.403 101.397C170.651 101.323 174.983 101.957 178.572 99.1554C179.554 98.2405 180.625 97.1007 180.988 95.754C183.17 87.6463 178.666 82.9286 170.519 82.9366Z" fill="#27A69B"/>
<path d="M112.523 78.0318H107.168V96.5419L84.1821 96.5321V77.8802H78.4766L78.505 119.896L84.1821 119.884L84.1766 101.812H107.168V119.787H112.668L112.523 78.0318Z" fill="#FE652E"/>
<path d="M32.496 78.3178C33.0563 78.2825 33.874 78.2863 34.3327 78.7053C36.048 80.2792 37.7311 81.9778 39.282 83.7156C39.8604 84.3637 39.7474 85.3368 39.2558 85.9979C38.8649 86.5246 38.2767 86.8698 37.6263 86.954C35.094 87.2686 34.3605 82.714 31.8058 84.9488C30.8087 85.8209 29.8625 86.8606 28.9272 87.8057L24.3545 92.3696L20.4491 96.242C19.5352 97.1491 17.305 98.8223 18.4815 100.232C19.3748 101.303 20.5188 102.367 21.5129 103.359L26.5763 108.418L29.9076 111.733C30.5885 112.41 31.7434 113.767 32.6937 114.016C33.1715 114.142 33.8749 113.98 34.2525 113.617C35.2938 112.617 36.3159 111.582 37.3406 110.558L43.388 104.484C44.1993 103.665 47.3886 100.566 47.8212 99.9132C47.8405 99.5196 47.8179 99.0491 47.8092 98.6495C47.1133 97.3367 44.9628 96.3589 45.0758 94.9271C45.2999 92.0864 48.0201 92.062 49.4758 94.0287C49.6721 94.2939 50.4924 95.0416 50.7378 95.2879C51.8366 96.407 55.1615 98.8949 53.5842 100.68C52.1132 102.345 50.3722 103.982 48.7887 105.565L40.7622 113.605L36.6723 117.693C36.0314 118.333 34.8283 119.61 34.1436 120.065C33.2753 120.167 32.8068 120.164 31.9488 120.016C31.294 119.528 30.1327 118.324 29.5262 117.725L25.2296 113.444L17.0833 105.263C15.6036 103.779 13.57 101.91 12.2574 100.254C12.0801 100.031 12.1042 98.5893 12.2901 98.3478C13.7228 96.4862 15.586 94.7876 17.256 93.1088L24.8768 85.4517C27.0283 83.2946 29.1881 81.0793 31.3788 78.9601C31.7439 78.6069 32.0251 78.4799 32.496 78.3178Z" fill="#FE652E"/>
<path d="M50.0717 79.3086C50.9073 79.2814 51.4 79.295 52.0545 79.8907C53.2843 81.01 54.4419 82.2143 55.6168 83.3921C59.7861 87.5676 63.9715 91.7276 68.0978 95.9457C68.9115 96.7723 70.5041 98.2803 71.1704 99.1502C71.3295 100.217 71.4744 101.208 70.6197 102.059C66.9737 105.69 63.3317 109.323 59.7155 112.984C58.0504 114.679 56.3726 116.361 54.6821 118.031C53.6953 119.007 52.7318 120.013 51.6436 120.874C51.065 121.333 49.9006 121.239 49.3561 120.785C47.8704 119.539 46.5646 117.942 45.1228 116.642C43.6809 115.204 43.3855 113.277 45.612 112.44C47.9851 111.549 49.4381 116.44 51.3819 114.915C52.2868 114.205 54.0331 112.324 54.8982 111.455L62.3591 103.972C63.2323 103.006 64.6313 101.867 65.328 100.789L65.3293 99.6203C64.865 98.9322 63.8089 97.9579 63.1874 97.3425L59.8081 93.9907L54.5249 88.7146C53.5539 87.7452 52.5884 86.759 51.5824 85.8276C51.1162 85.3851 50.4092 85.2148 49.8739 85.6429C48.7335 86.5549 47.7249 87.6328 46.6829 88.6628L41.916 93.3989C40.2895 95.0258 37.2252 97.9152 35.8238 99.5679L35.848 100.85C37.1476 102.615 40.5353 104.657 37.1483 106.75C36.3051 106.809 35.2855 106.795 34.6528 106.072C33.1602 104.366 31.0568 102.877 29.8391 101.004C29.6604 100.729 29.562 99.5668 29.7399 99.3315C30.9862 97.684 32.6489 96.1891 34.1287 94.7155L40.9312 87.9393L46.107 82.755C47.152 81.7057 48.7575 79.8086 50.0717 79.3086Z" fill="#27A69B"/>
</svg>
