<svg width="200" height="200" viewBox="0 0 231.525 221.38" fill="none" xmlns="http://www.w3.org/2000/svg">
<g clip-path="url(#clip0_7097_282)">
<path d="M48.104 17.8823C76.8806 -6.6336 143.429 -5.76324 171.701 19.3938L172.937 18.2532C179.399 12.3595 186.756 7.66187 195.97 8.28648C202.932 8.79648 209.373 12.1532 213.777 17.5655C225.158 31.6708 217.196 47.1179 205.044 56.9225C205.98 59.4845 206.936 62.0365 207.921 64.5789C214.148 65.0739 220.093 66.2806 224.393 71.5868C231.985 80.9564 231.965 100.596 231.194 112.105C230.954 115.697 229.623 117.65 227.751 120.577C225.148 124.651 224.453 130.354 222.971 135.065C217.931 151.081 207.326 160.776 193.227 168.789C188.558 172.523 183.357 175.531 177.792 177.723C189.403 198.043 190.63 203.939 167.292 212.632C133.844 224.404 86.4349 224.343 53.221 212.162C29.3858 204.694 31.1915 196.176 42.9345 177.167C29.1581 170.736 15.6834 164.308 7.33675 151.115C4.69267 147.451 3.02206 143.179 1.85642 138.833C0.474576 133.872 -0.142553 128.729 0.0276134 123.582C0.462037 112.858 9.71456 65.7876 14.779 57.0016C14.266 56.5716 13.76 56.1332 13.2615 55.6868C6.72516 49.8225 2.37292 43.2586 2.02608 34.0777C1.75832 27.1444 4.34585 20.4053 9.18407 15.4325C13.756 10.7964 19.9871 8.17487 26.498 8.14734C34.8531 8.11631 42.3059 12.0977 48.104 17.8823Z" fill="#F6592D"/>
<path d="M207.921 64.5789C214.147 65.0739 220.093 66.2806 224.392 71.5868C231.985 80.9564 231.965 100.596 231.194 112.105C230.954 115.697 229.622 117.65 227.75 120.577C225.148 124.651 224.452 130.354 222.971 135.065C217.931 151.081 207.326 160.776 193.227 168.789C188.557 172.523 183.357 175.531 177.792 177.723C189.403 198.043 190.629 203.939 167.291 212.632C133.844 224.404 86.4346 224.343 53.2207 212.162C29.3854 204.694 31.1912 196.176 42.9342 177.167C29.1577 170.736 15.6831 164.308 7.33643 151.115C9.16271 146.675 6.53264 139.249 10.5611 131.36C15.5124 121.663 20.695 118.185 30.507 114.51C51.3589 129.709 73.6091 126.187 90.0491 106.761C90.9775 108.77 92.3319 111.967 93.49 113.728C103.304 124.913 114.82 125.607 124.535 113.873C125.966 111.795 127.458 107.87 128.509 105.446C145.891 126.051 167.907 129.552 189.728 113.097C204.913 118.408 210.579 124.394 210.544 141.237C211.174 140.236 211.84 139.056 212.401 138C215.158 132.683 216.785 126.853 217.185 120.877C218.131 107.863 211.84 77.4265 207.921 64.5789Z" fill="#FEE3B5"/>
<path d="M42.9345 177.167C49.9203 179.239 56.4952 181.927 63.6807 183.944C94.0263 189.479 128.389 191.917 158.668 184.159C164.829 181.942 171.506 179.91 177.792 177.723C189.403 198.043 190.63 203.939 167.292 212.632C133.844 224.404 86.4349 224.343 53.221 212.162C29.3858 204.694 31.1916 196.176 42.9345 177.167Z" fill="#FEDCA8"/>
<path d="M42.9345 177.167C49.9203 179.239 56.4952 181.927 63.6807 183.944C61.1363 185.015 60.8059 185.055 59.6528 188.238C57.271 194.815 54.0939 205.345 53.221 212.162C29.3858 204.694 31.1916 196.176 42.9345 177.167Z" fill="#FECE93"/>
<path d="M158.668 184.159C164.829 181.942 171.506 179.91 177.792 177.723C189.403 198.043 190.63 203.939 167.292 212.632C166.526 206.691 161.892 189.414 158.668 184.159Z" fill="#FECE93"/>
<path d="M207.921 64.5789C214.147 65.0739 220.093 66.2806 224.392 71.5868C231.985 80.9564 231.965 100.596 231.194 112.105C230.954 115.697 229.622 117.65 227.751 120.577C225.148 124.651 224.452 130.354 222.971 135.065C217.931 151.081 207.326 160.776 193.227 168.789C190.039 168.959 182.692 171.497 175.855 171.982C170.865 179.445 164.023 179.279 155.845 178.984C144.124 178.554 139.449 164.622 148.969 157.776C153.573 154.465 161.266 154.947 166.651 155.87C170.945 156.663 173.327 158.845 175.565 162.53C191.19 160.272 202.065 155.049 210.544 141.237C211.174 140.236 211.84 139.056 212.401 138C215.158 132.683 216.785 126.853 217.185 120.877C218.131 107.863 211.84 77.4265 207.921 64.5789Z" fill="#35332B"/>
<path d="M92.0754 159.84C86.7012 153.977 84.424 148.888 80.5517 142.109C78.7534 138.96 70.3377 135.037 73.6444 130.585C74.1194 130.38 75.7805 129.539 76.1384 129.73C91.8102 138.077 92.4903 141.092 108.99 129.71C116.893 136.093 126.347 140.114 135.606 133.461C138.804 131.164 139.209 128.969 143.368 130.034C144.89 131.557 144.404 130.688 144.955 132.691C144.244 137.225 139.104 139.092 137.483 141.739C132.918 149.189 132.413 152.563 126.247 159.04C115.726 168.989 103.084 169.29 92.0754 159.84Z" fill="#35332B"/>
<path d="M92.0752 159.84C103.665 148.779 114.215 148.262 126.247 159.04C115.726 168.989 103.084 169.29 92.0752 159.84Z" fill="#FE6046"/>
<path d="M48.104 17.8823C76.8806 -6.6336 143.429 -5.76324 171.701 19.3938L172.937 18.2532C179.399 12.3595 186.756 7.66187 195.97 8.28648C202.932 8.79648 209.373 12.1532 213.777 17.5655C225.158 31.6708 217.196 47.1179 205.044 56.9225C205.98 59.4845 206.936 62.0365 207.921 64.5789C211.84 77.4265 218.131 107.863 217.185 120.877C216.785 126.853 215.159 132.683 212.401 138C211.84 139.056 211.175 140.236 210.544 141.237C210.579 124.394 204.913 118.408 189.729 113.097C198.687 104.69 203.958 95.1648 204.413 82.6531C204.904 71.3025 200.815 60.2307 193.067 51.9201C185.344 43.6866 174.073 38.471 162.752 38.2207C151.972 37.9084 141.537 42.0179 133.864 49.5958C128.329 54.9811 124.705 61.2957 122.268 68.5774C113.259 65.8437 105.797 65.2251 96.761 68.5223C91.7861 56.0792 85.1171 47.0729 72.3762 41.605C62.3935 37.2172 51.0629 37.0406 40.9481 41.1145C30.6405 45.3842 22.4665 53.5957 18.2449 63.9228C13.7761 74.7969 13.8046 86.9998 18.3235 97.8534C21.2593 104.831 25.0495 109.392 30.5074 114.51C20.6953 118.185 15.5127 121.663 10.5614 131.36C6.53296 139.249 9.16303 146.675 7.33675 151.115C4.69267 147.451 3.02206 143.179 1.85642 138.833C0.474576 133.872 -0.142553 128.729 0.0276134 123.582C0.462037 112.858 9.71456 65.7876 14.779 57.0016C14.266 56.5716 13.76 56.1332 13.2615 55.6868C6.72516 49.8225 2.37292 43.2586 2.02608 34.0777C1.75832 27.1444 4.34585 20.4053 9.18407 15.4325C13.756 10.7964 19.9871 8.17487 26.498 8.14734C34.8531 8.11631 42.3059 12.0977 48.104 17.8823Z" fill="#FECE93"/>
<path d="M194.288 24.5959C209.933 24.5323 205.789 43.8767 199.403 47.2169L198.497 46.8881L185.705 31.3094C188.688 28.0092 190.044 26.296 194.288 24.5959Z" fill="#F3B06D"/>
<path d="M23.0779 24.6284C29.0522 24.5824 30.41 26.1579 34.5386 30.1734C31.2463 33.5567 26.9997 39.1151 23.9287 42.8963L20.8012 46.9337C14.2357 39.3984 12.6382 29.4131 23.0779 24.6284Z" fill="#F3B06D"/>
<path d="M97.5016 90.8586C106.032 89.6063 114.025 88.5278 122.183 92.1068C122.953 94.3215 123.944 97.4865 124.9 99.5335C126.182 101.421 127.343 103.477 128.509 105.446C127.458 107.87 125.966 111.795 124.535 113.873C114.82 125.607 103.304 124.913 93.4902 113.728C92.332 111.967 90.9777 108.77 90.0493 106.761C91.5208 104.457 92.9912 101.893 94.385 99.5295C95.8485 96.3109 96.4701 94.2329 97.5016 90.8586Z" fill="#FE6046"/>
<path d="M109.1 120.586C112.663 117.079 118.439 105.843 123.454 112.384C123.824 112.875 124.185 113.371 124.535 113.873C114.821 125.607 103.304 124.913 93.4902 113.728C100.037 104.449 104.946 115.884 109.1 120.586Z" fill="#F6592D"/>
<path d="M97.5013 90.8586C106.032 89.6063 114.024 88.5278 122.182 92.1068C122.953 94.3215 123.944 97.4865 124.9 99.5335C124.32 99.4815 124.505 99.5376 123.964 99.3319C117.163 96.7358 109.56 94.8265 102.348 96.8349C99.6879 97.5751 97.5214 98.5921 94.9363 99.4154C94.7526 99.4535 94.5689 99.4915 94.3848 99.5295C95.8482 96.3109 96.4698 94.2329 97.5013 90.8586Z" fill="#FEE3B5"/>
<path d="M98.601 77.5661C107.058 75.4911 112.213 75.5501 120.686 77.9169C120.781 82.8853 121.016 87.233 122.183 92.1068C114.025 88.5278 106.032 89.6063 97.5015 90.8585C98.3833 86.4382 98.6601 82.0685 98.601 77.5661Z" fill="#FECE93"/>
<path d="M53.8544 48.238C71.8364 46.7876 87.6008 60.1627 89.0993 78.1407C90.5973 96.1188 77.2643 111.919 59.2902 113.465C41.2486 115.017 25.3756 101.623 23.8717 83.5765C22.3682 65.5304 35.8048 49.6934 53.8544 48.238Z" fill="#FECE93"/>
<path d="M58.0538 66.2556C79.0478 64.3968 81.8055 92.3306 64.2884 98.5421C46.4109 102.468 39.1684 74.2134 58.0538 66.2556Z" fill="#35332B"/>
<path d="M63.9705 71.9707C65.5245 71.4341 67.2472 71.777 68.4769 72.8685C69.7066 73.9596 70.2521 75.6297 69.9033 77.2363C69.5549 78.8434 68.3668 80.1371 66.7952 80.6211C64.4224 81.3513 61.9015 80.045 61.1307 77.6847C60.36 75.3244 61.6237 72.782 63.9705 71.9707Z" fill="#FEFFFF"/>
<path d="M159.659 48.0783C177.672 46.4512 193.587 59.7577 195.179 77.7773C196.77 95.7969 183.432 111.685 165.41 113.238C147.437 114.786 131.607 101.495 130.02 83.5275C128.434 65.5604 141.692 49.7009 159.659 48.0783Z" fill="#FECE93"/>
<path d="M154.149 66.2486C161.786 65.4433 167.627 67.711 170.705 75.2414C172.657 80.0666 172.507 85.4869 170.295 90.198C168.193 94.6558 165.28 96.7864 160.851 98.4961C153.919 99.8154 148.043 97.3725 144.925 90.8196C142.718 86.0609 142.533 80.6111 144.41 75.7128C146.406 70.5778 149.294 68.2755 154.149 66.2486Z" fill="#35332B"/>
<path d="M161.015 71.9777C163.388 71.1874 165.95 72.4687 166.741 74.8405C167.537 77.2123 166.256 79.7773 163.883 80.5716C161.511 81.3669 158.943 80.0856 158.148 77.7108C157.357 75.3365 158.638 72.7685 161.015 71.9777Z" fill="#FEFFFF"/>
</g>
<defs>
<clipPath id="clip0_7097_282">
<rect width="231.525" height="221.38" fill="white"/>
</clipPath>
</defs>
</svg>
