<svg width="200" height="200" viewBox="0.125 0.166 620.941 200.37" fill="none" xmlns="http://www.w3.org/2000/svg">
<g clip-path="url(#clip0_7097_336)">
<path d="M127.578 2.30405C141.07 2.42132 154.563 2.39405 168.054 2.22262C167.476 35.0961 167.987 69.4217 167.975 102.414L167.967 137.542C167.967 142.906 167.716 152.098 168.213 157.098C159.913 156.681 144.495 156.894 136.076 157.228L136.113 92.0662C136.129 80.4457 136.429 66.6104 135.863 55.1635C134.234 57.9905 132.319 63.2086 131.056 66.3904L124.291 83.3466L105.514 130.212C102.086 138.754 98.4992 148.229 94.8165 156.55C87.7892 156.285 80.2356 156.454 73.1687 156.506C71.8027 151.81 68.5137 144.224 66.5918 139.426L54.3843 108.938L41.0308 75.464C38.409 68.8756 35.3665 60.6221 32.2524 54.3777C33.1646 82.9096 31.8788 112.013 32.4156 140.597C32.5154 145.905 32.1418 151.817 32.667 157.044C23.1841 156.9 9.41258 156.799 0.18402 157.241C0.41748 106.058 0.713318 53.2863 0.125 2.16809C4.30897 2.53374 10.6919 2.36231 14.9887 2.3582L40.5867 2.35633C44.6709 10.9997 48.7077 21.6204 52.3717 30.5607L72.1579 78.8408C75.0913 86.0097 80.6988 100.822 84.1032 107.147C86.2715 103.404 88.2942 97.9723 89.9542 93.8803L97.1183 76.3903C106.991 52.3018 117.146 25.9858 127.578 2.30405Z" fill="#3E63DE"/>
<path d="M369.714 0.592307C390.031 -1.63036 414.277 4.74519 426.588 22.0357C432.404 30.2037 433.518 37.3157 434.653 47.0016C424.822 46.7767 412.783 46.8342 402.959 47.0927C400.747 33.4011 391.118 28.4135 377.958 27.8346C366.655 27.3367 352.132 31.5692 351.837 45.18C351.527 59.3459 371.458 62.9826 382.108 65.423C397.729 68.9888 413.948 72.9571 425.569 84.7797C436.629 96.0331 439.158 113.687 433.865 128.241C431.881 133.687 428.284 139.857 424.037 143.821C410.511 156.437 391.487 159.508 373.655 159.169C351.859 159.058 327.736 151.02 318.36 129.606C315.189 122.357 314.405 115.991 313.953 108.192C322.361 108.792 337.216 108.37 345.946 108.363C346.525 115.183 348.314 119.84 353.432 124.555C366.494 136.59 404.053 134.258 403.209 111.392C402.484 98.9699 382.993 94.9033 373.494 92.6664C347.952 86.6524 318.043 79.2161 318.125 47.0643C318.196 17.7719 343.051 2.69844 369.714 0.592307Z" fill="#3E63DE"/>
<path d="M458.081 2.15991C461.947 2.53565 468.006 2.36497 472.066 2.36572L496.253 2.35675C518.093 2.34442 540.912 2.71418 562.678 2.20361C562.66 11.2407 562.518 20.748 562.742 29.7492C561.535 29.6315 560.273 29.608 559.059 29.5957C536.393 29.3592 513.682 29.7985 491.019 29.503L491.053 66.2115C498.109 65.962 506.252 66.1574 513.372 66.1585L557.135 66.0883C556.945 75.0058 557.101 84.4417 557.101 93.3993C535.631 92.8984 512.968 93.9132 491.714 93.2009L491.43 93.1838L491.046 93.5614C490.676 105.066 491.023 118.361 491.053 130.001C514.01 129.509 539.986 129.776 563.018 129.983C562.719 134.351 562.48 152.923 563.142 157.087C542.466 156.803 521.321 157.073 500.601 157.051C487.306 157.037 471.151 156.634 458.13 157.242L458.081 2.15991Z" fill="#3E63DE"/>
<path d="M268.055 41.0178C279.376 41.1541 290.902 41.0428 302.239 41.0294C293.344 67.7137 283.366 95.0605 274.028 121.674L263.234 152.505C257.451 169.024 253.075 187.531 236.138 195.864C223.245 202.208 206.74 201.53 193.399 197.18C195.614 191.728 198.993 179.187 200.836 173C216.529 177.128 220.583 175.096 226.434 160.115C211.927 120.987 199.02 80.3561 184.717 41.0223C195.884 41.305 207.521 40.9293 218.817 41.1194C225.934 65.144 232.324 89.4842 239.262 113.565C240.574 118.115 241.714 122.793 243.439 127.204C249.514 107.306 254.725 86.5019 260.712 66.5241C263.217 58.163 265.304 49.2605 268.055 41.0178Z" fill="#3E63DE"/>
<path d="M588.083 2.15845C591.504 2.50766 597.171 2.37284 600.768 2.37022C607.536 2.40384 614.301 2.3508 621.066 2.21148C620.464 53.4343 621.2 105.38 621.043 156.675L620.561 157.078C619.105 156.997 617.502 157.014 616.034 157.036C606.774 157.176 597.372 156.803 588.127 157.243L588.083 2.15845Z" fill="#3E63DE"/>
</g>
<defs>
<clipPath id="clip0_7097_336">
<rect width="622" height="201" fill="white"/>
</clipPath>
</defs>
</svg>
