<svg width="200" height="200" viewBox="-30 -30 260 260" fill="none" xmlns="http://www.w3.org/2000/svg">
<path d="M35.8847 57.4199C37.226 57.2971 38.5289 57.3776 39.8718 57.4563C48.8827 57.9843 58.8301 62.2743 65.108 68.8124C62.3845 72.1891 59.6833 75.5836 57.0045 78.9956C55.7633 78.095 54.5248 77.1899 53.2928 76.2623C46.7624 71.3464 33.3229 68.8368 26.5263 74.5892C24.6328 76.1757 23.4649 78.4629 23.2901 80.9268C22.683 88.5807 30.2445 91.563 36.1437 93.9581C39.3395 95.2537 42.5287 96.5654 45.7113 97.893C52.1581 100.572 58.8024 103.436 63.1297 108.957C71.2316 119.293 68.9165 135.407 58.7061 143.439C50.4653 149.923 40.4702 151.35 30.5626 150.458C29.1908 150.25 27.7346 150.098 26.3871 149.809C17.0598 147.812 9.95307 143.938 3.00439 137.511L8.44581 131.217C9.72614 129.733 11.1876 128.114 12.3655 126.565C12.7371 126.853 13.1051 127.213 13.4674 127.525C19.8084 133.001 27.9516 136.959 36.4767 136.744C40.9847 136.63 45.4242 135.879 48.7216 132.519C52.3943 128.776 52.5501 121.863 48.7717 118.149C47.0183 116.426 44.537 115.195 42.3639 114.089C36.0944 111.343 29.7514 108.711 23.5101 105.901C19.5862 104.134 16.5749 101.829 13.495 98.8911C9.16743 94.7629 7.18601 88.9044 7.09481 83.0359C6.96356 76.8024 9.36109 70.7809 13.7415 66.3433C19.4265 60.5282 27.8523 57.5196 35.8847 57.4199Z" fill="#1B3B98"/>
<path d="M119.114 57.419C119.632 57.3644 120.151 57.3399 120.671 57.3455C131.318 57.3849 139.694 61.2929 147.145 68.7672C144.512 72.2195 141.377 75.6505 138.666 79.1169C133.327 74.6242 129.419 71.3914 122.033 71.322C104.034 71.1528 96.4706 87.3476 96.3005 103.238C96.1323 118.949 102.177 136.221 120.434 136.749C129.061 137.002 134.458 133.39 140.423 127.597L142.087 129.557L146.424 134.665C147.189 135.563 148.28 136.774 148.935 137.71C147.32 139.618 145.11 141.602 143.158 143.154C128.934 154.47 106.225 152.815 93.2344 140.348C82.2461 129.802 78.9808 113.799 80.1107 99.1074C80.9459 87.9157 84.6758 77.378 92.515 69.1659C99.2772 62.0819 109.31 57.5949 119.114 57.419Z" fill="#1B3B98"/>
<path d="M172.086 49.2443C174.291 49.1166 177.597 49.2499 179.985 49.2104C180.069 51.0676 180.004 53.4931 180.004 55.3899L179.978 66.6343C185.095 66.8249 191.314 66.6472 196.554 66.6472C196.532 69.0025 196.443 72.0959 196.612 74.3923C191.535 74.4954 185.073 74.5056 180.022 74.3419C179.935 77.9595 180.038 81.7454 179.993 85.3792C179.976 86.7547 179.916 90.6448 180.101 91.7621C177.553 91.8545 174.535 91.7845 171.957 91.7642C172.077 89.7186 172.021 87.3918 172.02 85.317L172.039 74.3704C166.619 74.4791 160.968 74.4005 155.53 74.4001L155.529 66.6313C160.763 66.7871 166.768 66.6518 172.066 66.653C171.924 62.9169 172.072 58.9159 172.015 55.1536C171.998 54.0534 171.952 50.033 172.086 49.2443Z" fill="#1B3B98"/>
</svg>
