<svg width="200" height="200" viewBox="0 0 246.427 373.323" fill="none" xmlns="http://www.w3.org/2000/svg">
<g clip-path="url(#clip0_7097_389)">
<path d="M114.618 258.6C116.261 258.363 115.651 258.234 117.094 258.881C118.179 261.594 117.424 361.634 117.581 373.321L3.16165 373.323L1.14995 373.257C0.273974 372.233 0.0100999 371.363 0.0461546 369.978C0.719958 344.134 11.4099 317.52 28.2828 298.518C51.8991 271.922 80.084 260.667 114.618 258.6Z" fill="#F99A24"/>
<path d="M128.842 131.097C157.304 131.35 183.048 140.162 205.082 158.448C224.646 174.645 238.19 196.95 243.535 221.776C245.178 229.725 245.66 237.504 246.423 245.561L128.851 245.573L128.842 131.097Z" fill="#2D2DB8"/>
<path d="M0.0576172 130.977C13.6067 131.474 29.263 131.135 43.0092 131.138L117.61 131.036C117.049 146.138 117.329 162.537 117.327 177.772C117.26 200.391 117.315 223.011 117.495 245.63C86.9667 245.438 57.6424 233.699 35.4185 212.774C12.5256 190.805 0.761763 162.558 0.0576172 130.977Z" fill="#C6B7FE"/>
<path d="M129.658 258.475C144.366 259.075 161.939 258.662 176.842 258.666C200.037 258.772 223.233 258.708 246.427 258.472C243.869 292.115 236.225 314.577 212.337 339.536C188.401 362.375 162.41 372.122 129.666 373.224L129.658 258.475Z" fill="#2D2DB8"/>
<path d="M115.049 38.3613L115.845 38.4134C116.868 40.0325 116.573 56.2541 116.586 59.5005C84.2701 61.8293 62.0012 81.1071 60.4213 114.352C53.7105 114.268 46.9979 114.362 40.2922 114.634L39.673 114.577C38.9758 113.73 38.7877 113.828 38.8015 112.811C39.0226 96.482 45.7512 78.0845 56.4534 66.0494C73.38 47.0142 90.5669 40.1549 115.049 38.3613Z" fill="#F99A24"/>
<path d="M108.621 74.4419C110.34 74.176 113.835 74.0542 115.699 73.9298L115.711 114.319L81.9211 114.366L73.6875 114.55C76.7255 92.9379 85.8953 78.5985 108.621 74.4419Z" fill="#F99A24"/>
<path d="M128.935 0H246.39C245.698 6.44007 245.55 11.7789 244.443 18.4096C240.933 39.1785 231.746 58.5725 217.898 74.447C193.822 102.016 164.345 112.312 128.911 114.661L128.935 0Z" fill="#C6B7FE"/>
<path d="M106.956 0H117.487L117.586 20.5625C63.6554 23.0095 22.5225 58.9136 21.5465 114.374C14.3629 114.278 7.17799 114.38 0 114.68C0.412471 91.437 6.47486 70.3735 19.5704 51.0172C34.7394 28.3768 57.5115 11.9108 83.7686 4.5969C92.0357 2.30236 98.7459 1.58545 106.956 0Z" fill="#F99A24"/>
</g>
<defs>
<clipPath id="clip0_7097_389">
<rect width="246.427" height="373.323" fill="white"/>
</clipPath>
</defs>
</svg>
