<svg width="200" height="200" viewBox="94.19 208.25 568.969 337.026" fill="none" xmlns="http://www.w3.org/2000/svg">
<path d="M108.016 208.354L450.141 208.324L581.921 208.325L624.091 208.298C632.161 208.288 640.315 208.155 648.325 208.378C666.033 208.844 662.829 226.872 663.08 238.982C663.298 249.633 662.401 257.719 650.33 260.312L288.88 260.322L167.794 260.32L129.388 260.338C99.7489 260.391 92.7525 263.764 94.4196 229.573C94.6972 223.879 93.5141 217.892 97.963 213.132C101.022 209.858 103.786 208.708 108.016 208.354Z" fill="#E75D71"/>
<path d="M582.917 298.792C605.077 297.66 628.639 303.122 649.459 310.469C665.561 316.151 662.449 315.848 656.771 331.108C653.423 340.112 649.551 349.167 646.118 358.164C642.755 367.076 640.895 364.663 633.235 361.773C618.056 355.692 602.175 350.643 585.671 350.649C575.523 350.061 560.673 353.406 560.714 366.174C560.994 373.6 567.262 378.443 572.999 381.817C596.122 395.412 623.331 402.699 643.501 420.924C669.942 444.818 668.543 492.208 644.7 517.399C624.996 538.218 598.587 544.239 571.02 545.187C548.75 545.199 526.623 543.67 505.889 534.852C502.651 533.475 495.084 531.459 494.874 527.406C494.589 522.042 494.7 516.49 494.708 511.105L494.77 477.893C496.044 476.018 497.461 474.132 499.831 475.143C522.227 484.685 545.612 492.685 570.3 492.437C578.085 492.356 587.55 491.902 593.538 485.593C599.47 479.348 599.706 469.573 593.024 463.511C582.895 454.84 569.78 450.307 557.753 444.608C543.39 438.233 530.008 431.341 517.96 421.105C491.651 398.749 488.934 350.926 511.932 325.286C530.385 304.708 556.564 300.304 582.917 298.792Z" fill="#0B2440"/>
<path d="M181.373 298.79C203.552 297.637 227.158 302.62 248.008 310.019C251.665 311.316 256.85 312.663 259.728 315.306C260.493 316.009 261.005 316.691 261.019 317.775C261.055 320.538 246.98 355.581 244.572 360.693C244.002 361.902 243.356 362.889 242.464 363.884C239.577 365.165 231.035 361.019 227.83 359.781C222.083 357.534 216.201 355.651 210.219 354.141C196.553 350.723 161.561 344.016 160.28 366.417C160.085 369.824 163.888 375.863 166.732 377.834C190.486 394.098 219.791 400.809 241.866 419.842C269.434 443.611 268.396 491.946 244.043 517.602C224.975 537.69 199.164 543.969 172.512 545.158C149.068 545.343 126.646 543.87 104.823 534.626C103.271 533.884 96.3978 531.452 95.5809 530.097C93.716 527.007 94.4425 513.39 94.4455 510.211L94.4857 477.779C96.719 474.39 97.6156 474.224 101.341 475.745C103.334 476.612 105.426 477.424 107.386 478.347C124.784 486.524 178.739 501.869 193.563 485.077C196.366 481.858 197.779 477.657 197.494 473.401C196.53 460.828 177.47 453.906 167.463 449.196C150.177 441.596 134.137 434.331 119.194 422.577C91.7939 401.027 88.2638 352.191 110.822 326.052C128.957 305.039 154.819 300.566 181.373 298.79Z" fill="#0B2440"/>
<path d="M297.123 297.576C300.219 297.481 310.261 301.279 314.501 302.263C326.027 304.904 337.758 306.547 349.565 307.176C351.814 307.3 354.2 307.231 356.165 308.359C358.519 312.201 357.829 321.712 357.828 326.464L357.824 350.723L357.795 432.703L357.781 459.521C357.78 464.634 357.735 469.779 357.93 474.859C358.099 479.292 359.857 482.936 363.443 485.638C380.828 498.731 420.208 487.266 438.816 480.754C444.848 478.93 450.769 475.147 456.941 474.047C460.699 473.379 460.481 479.119 460.492 481.142L460.503 513.596C460.503 517.949 460.61 523.194 460.322 527.565C460.27 528.362 459.484 528.931 458.882 529.536C433.36 543.955 381.459 545.76 351.918 545.184C336.506 544.866 318.986 541.95 307.987 530.093C292.302 513.187 293.094 490.355 293.098 468.993L293.112 427.683L293.101 346.032C293.1 331.209 292.85 315.514 293.196 300.749C294.631 298.969 295.056 298.482 297.123 297.576Z" fill="#0B2440"/>
</svg>
